Diabolik-Courantarrondi.ufo
<glyph name="exclam" format="2">
  <advance width="315"/>
  <unicode hex="0021"/>
  <outline>
    <contour>
      <point x="175" y="0" type="curve" smooth="yes"/>
      <point x="193.668" y="18.6676"/>
      <point x="193.668" y="61.3324"/>
      <point x="175" y="80" type="curve" smooth="yes"/>
      <point x="156.332" y="98.6676"/>
      <point x="113.668" y="98.6676"/>
      <point x="95" y="80" type="curve" smooth="yes"/>
      <point x="76.3324" y="61.3324"/>
      <point x="76.3324" y="18.6676"/>
      <point x="95" y="0" type="curve" smooth="yes"/>
      <point x="113.668" y="-18.6676"/>
      <point x="156.332" y="-18.6676"/>
    </contour>
    <contour>
      <point x="95" y="180" type="line"/>
      <point x="95" y="700" type="line"/>
      <point x="215" y="700" type="line"/>
      <point x="175" y="180" type="line"/>
    </contour>
  </outline>
</glyph>
<glyph name="quotedbl" format="2">
  <advance width="387"/>
  <unicode hex="0022"/>
  <outline>
    <contour>
      <point x="171" y="600" type="curve" smooth="yes"/>
      <point x="180.867" y="631.663"/>
      <point x="183.7" y="667"/>
      <point x="187" y="700" type="curve"/>
      <point x="77" y="700" type="line"/>
      <point x="77" y="667"/>
      <point x="75.1119" y="632.743"/>
      <point x="71" y="600" type="curve" smooth="yes"/>
      <point x="66.1427" y="561.322"/>
      <point x="58.91" y="522.95"/>
      <point x="50" y="485" type="curve"/>
      <point x="120" y="485" type="line"/>
      <point x="138.81" y="522.95"/>
      <point x="158.398" y="559.562"/>
    </contour>
    <contour>
      <point x="331" y="600" type="curve" smooth="yes"/>
      <point x="340.867" y="631.663"/>
      <point x="343.7" y="667"/>
      <point x="347" y="700" type="curve"/>
      <point x="237" y="700" type="line"/>
      <point x="237" y="667"/>
      <point x="235.112" y="632.743"/>
      <point x="231" y="600" type="curve" smooth="yes"/>
      <point x="226.143" y="561.322"/>
      <point x="218.91" y="522.95"/>
      <point x="210" y="485" type="curve"/>
      <point x="280" y="485" type="line"/>
      <point x="298.81" y="522.95"/>
      <point x="318.398" y="559.562"/>
    </contour>
  </outline>
</glyph>
<glyph name="percent" format="2">
  <advance width="749"/>
  <unicode hex="0025"/>
  <outline>
    <contour>
      <point x="152" y="0" type="line"/>
      <point x="491.348" y="700" type="line"/>
      <point x="614.348" y="700" type="line"/>
      <point x="235" y="0" type="line"/>
    </contour>
    <contour>
      <point x="580.326" y="405.984" type="curve"/>
      <point x="580.326" y="405.984" type="line" smooth="yes"/>
      <point x="683.45" y="405.995"/>
      <point x="703.942" y="268.127"/>
      <point x="703.942" y="202.07" type="curve" smooth="yes"/>
      <point x="703.942" y="142.695"/>
      <point x="687.621" y="-3.18981"/>
      <point x="580.326" y="-3.18981" type="curve"/>
      <point x="580.326" y="-3.18981" type="line" smooth="yes"/>
      <point x="473.758" y="-3.19501"/>
      <point x="456.71" y="135.236"/>
      <point x="456.71" y="201.293" type="curve" smooth="yes"/>
      <point x="456.71" y="261.134"/>
      <point x="473.03" y="405.985"/>
    </contour>
    <contour>
      <point x="580.326" y="326.419" type="line"/>
      <point x="543.516" y="326.61"/>
      <point x="537.075" y="250.134"/>
      <point x="537.075" y="201.293" type="curve" smooth="yes"/>
      <point x="537.075" y="139.082"/>
      <point x="548.328" y="76.807"/>
      <point x="580.326" y="76.807" type="curve"/>
      <point x="580.326" y="76.807" type="line"/>
      <point x="618.187" y="76.807"/>
      <point x="623.543" y="160.062"/>
      <point x="623.543" y="202.07" type="curve" smooth="yes"/>
      <point x="623.543" y="257.379"/>
      <point x="609.627" y="326.004"/>
      <point x="580.326" y="326.419" type="curve"/>
    </contour>
    <contour>
      <point x="169.326" y="699.984" type="curve"/>
      <point x="169.326" y="699.984" type="line" smooth="yes"/>
      <point x="272.45" y="699.995"/>
      <point x="292.942" y="562.127"/>
      <point x="292.942" y="496.07" type="curve" smooth="yes"/>
      <point x="292.942" y="436.694"/>
      <point x="276.621" y="290.81"/>
      <point x="169.326" y="290.81" type="curve"/>
      <point x="169.326" y="290.81" type="line" smooth="yes"/>
      <point x="62.7579" y="290.805"/>
      <point x="45.7097" y="429.236"/>
      <point x="45.7097" y="495.293" type="curve" smooth="yes"/>
      <point x="45.7097" y="555.134"/>
      <point x="62.0299" y="699.985"/>
    </contour>
    <contour>
      <point x="169.326" y="620.419" type="line"/>
      <point x="132.516" y="620.61"/>
      <point x="126.075" y="544.134"/>
      <point x="126.075" y="495.293" type="curve" smooth="yes"/>
      <point x="126.075" y="433.082"/>
      <point x="137.328" y="370.807"/>
      <point x="169.326" y="370.807" type="curve"/>
      <point x="169.326" y="370.807" type="line"/>
      <point x="207.187" y="370.807"/>
      <point x="212.543" y="454.062"/>
      <point x="212.543" y="496.07" type="curve" smooth="yes"/>
      <point x="212.543" y="551.379"/>
      <point x="198.627" y="620.004"/>
      <point x="169.326" y="620.419" type="curve"/>
    </contour>
  </outline>
</glyph>
<glyph name="parenleft" format="2">
  <advance width="399"/>
  <unicode hex="0028"/>
  <outline>
    <contour>
      <point x="80" y="320" type="curve" smooth="yes"/>
      <point x="80" y="162.235"/>
      <point x="137.18" y="-13.9511"/>
      <point x="215" y="-130" type="curve"/>
      <point x="339" y="-130" type="line"/>
      <point x="247.161" y="10.7"/>
      <point x="160" y="160.89"/>
      <point x="160" y="320" type="curve" smooth="yes"/>
      <point x="160" y="479.11"/>
      <point x="237.161" y="609.3"/>
      <point x="328.961" y="750" type="curve"/>
      <point x="205" y="750" type="line"/>
      <point x="127.6" y="633.7"/>
      <point x="80" y="477.765"/>
    </contour>
  </outline>
</glyph>
<glyph name="parenright" format="2">
  <advance width="399"/>
  <unicode hex="0029"/>
  <outline>
    <contour>
      <point x="319" y="320" type="curve" smooth="yes"/>
      <point x="319" y="477.765"/>
      <point x="271.4" y="633.7"/>
      <point x="194" y="750" type="curve"/>
      <point x="70.039" y="750" type="line"/>
      <point x="161.839" y="609.3"/>
      <point x="239" y="479.11"/>
      <point x="239" y="320" type="curve" smooth="yes"/>
      <point x="239" y="160.89"/>
      <point x="151.839" y="10.7"/>
      <point x="60" y="-130" type="curve"/>
      <point x="184" y="-130" type="line"/>
      <point x="261.82" y="-13.9511"/>
      <point x="319" y="162.235"/>
    </contour>
  </outline>
</glyph>
<glyph name="comma" format="2">
  <advance width="197"/>
  <unicode hex="002C"/>
  <outline>
    <contour>
      <point x="138" y="0" type="curve" smooth="yes"/>
      <point x="146.977" y="28.311"/>
      <point x="146" y="70.3"/>
      <point x="146" y="100" type="curve"/>
      <point x="56" y="100" type="line"/>
      <point x="56" y="70.3"/>
      <point x="57.137" y="29.2524"/>
      <point x="52" y="0" type="curve" smooth="yes"/>
      <point x="45.1219" y="-39.1667"/>
      <point x="31.88" y="-77.05"/>
      <point x="20" y="-115" type="curve"/>
      <point x="81" y="-115" type="line"/>
      <point x="102.45" y="-77.05"/>
      <point x="124.824" y="-41.5537"/>
    </contour>
  </outline>
</glyph>
<glyph name="hyphen" format="2">
  <advance width="320"/>
  <unicode hex="002D"/>
  <outline>
    <contour>
      <point x="50" y="227" type="line"/>
      <point x="50" y="307" type="line"/>
      <point x="250" y="307" type="line"/>
      <point x="250" y="187" type="line"/>
    </contour>
  </outline>
</glyph>
<glyph name="period" format="2">
  <advance width="160"/>
  <unicode hex="002E"/>
  <outline>
    <contour>
      <point x="125" y="0" type="curve" smooth="yes"/>
      <point x="144.732" y="22.1981"/>
      <point x="144.732" y="67.8019"/>
      <point x="125" y="90" type="curve" smooth="yes"/>
      <point x="107.461" y="109.732"/>
      <point x="62.5392" y="109.732"/>
      <point x="45" y="90" type="curve" smooth="yes"/>
      <point x="25.2684" y="67.8019"/>
      <point x="25.2684" y="22.1981"/>
      <point x="45" y="0" type="curve" smooth="yes"/>
      <point x="62.5392" y="-19.7316"/>
      <point x="107.461" y="-19.7316"/>
    </contour>
  </outline>
</glyph>
<glyph name="slash" format="2">
  <advance width="451"/>
  <unicode hex="002F"/>
  <outline>
    <contour>
      <point x="80" y="0" type="line"/>
      <point x="219.348" y="700" type="line"/>
      <point x="340.348" y="700" type="line"/>
      <point x="161" y="0" type="line"/>
    </contour>
  </outline>
</glyph>
<glyph name="zero" format="2">
  <advance width="515"/>
  <unicode hex="0030"/>
  <outline>
    <contour>
      <point x="257.529" y="710.031" type="curve"/>
      <point x="257.529" y="710.031" type="line"/>
      <point x="433" y="710.053"/>
      <point x="469.059" y="467.442"/>
      <point x="469.059" y="351.199" type="curve" smooth="yes"/>
      <point x="469.059" y="246.716"/>
      <point x="440.34" y="-10"/>
      <point x="257.529" y="-10" type="curve"/>
      <point x="257.529" y="-10" type="line"/>
      <point x="75" y="-10.0106"/>
      <point x="45" y="233.589"/>
      <point x="45" y="349.832" type="curve" smooth="yes"/>
      <point x="45" y="455.134"/>
      <point x="73.7189" y="710.031"/>
    </contour>
    <contour>
      <point x="232.673" y="619.529" type="line"/>
      <point x="173.506" y="619.529"/>
      <point x="138.937" y="513.856"/>
      <point x="138.937" y="408.126" type="curve" smooth="yes"/>
      <point x="138.937" y="263"/>
      <point x="194" y="81.3595"/>
      <point x="278.805" y="77.9421" type="curve"/>
      <point x="278.805" y="77.9421" type="line"/>
      <point x="338.973" y="77.9421"/>
      <point x="371.411" y="183.701"/>
      <point x="371.541" y="289.367" type="curve" smooth="yes"/>
      <point x="371.72" y="434"/>
      <point x="316" y="616.111"/>
      <point x="232.673" y="619.529" type="curve"/>
    </contour>
  </outline>
</glyph>
<glyph name="one" format="2">
  <advance width="210"/>
  <unicode hex="0031"/>
  <outline>
    <contour>
      <point x="0" y="700" type="line"/>
      <point x="139.85" y="700" type="line"/>
      <point x="160" y="700"/>
      <point x="170" y="690"/>
      <point x="170" y="670" type="curve"/>
      <point x="170" y="0" type="line"/>
      <point x="50" y="0" type="line"/>
      <point x="90" y="620" type="line"/>
      <point x="66.3063" y="609.469" type="line"/>
      <point x="0" y="580" type="line"/>
    </contour>
  </outline>
</glyph>
<glyph name="two" format="2">
  <advance width="329"/>
  <unicode hex="0032"/>
  <outline>
    <contour>
      <point x="318.107" y="0" type="line"/>
      <point x="105.838" y="0" type="line" smooth="yes"/>
      <point x="44.5034" y="0"/>
      <point x="22.5388" y="22.7592"/>
      <point x="42.6187" y="87.0919" type="curve" smooth="yes"/>
      <point x="66.1027" y="162.331"/>
      <point x="199.572" y="503.755"/>
      <point x="200.943" y="579" type="curve" smooth="yes"/>
      <point x="201.726" y="621.998"/>
      <point x="161.383" y="634.939"/>
      <point x="61" y="570.939" type="curve"/>
      <point x="61" y="690.999" type="line"/>
      <point x="186.958" y="720.999"/>
      <point x="286.964" y="702.999"/>
      <point x="287.007" y="612" type="curve" smooth="yes"/>
      <point x="287.054" y="512.744"/>
      <point x="200.526" y="297.997"/>
      <point x="145" y="111.599" type="curve" smooth="yes"/>
      <point x="138.084" y="88.3821"/>
      <point x="140.76" y="81.2983"/>
      <point x="165.303" y="86.5986" type="curve" smooth="yes"/>
      <point x="318.107" y="119.599" type="line"/>
    </contour>
  </outline>
</glyph>
<glyph name="three" format="2">
  <advance width="401"/>
  <unicode hex="0033"/>
  <outline>
    <contour>
      <point x="75" y="487.05" type="line"/>
      <point x="141.078" y="510"/>
      <point x="236.094" y="556.783"/>
      <point x="235.754" y="587.998" type="curve" smooth="yes"/>
      <point x="235.394" y="621.022"/>
      <point x="169.622" y="609.95"/>
      <point x="55" y="579.95" type="curve"/>
      <point x="55" y="700" type="line"/>
      <point x="190.95" y="703"/>
      <point x="330.946" y="695"/>
      <point x="330.994" y="587" type="curve" smooth="yes"/>
      <point x="331.029" y="507.604"/>
      <point x="201.787" y="452.104"/>
      <point x="165" y="439.069" type="curve"/>
      <point x="282.602" y="418.646"/>
      <point x="355.007" y="357.696"/>
      <point x="355.007" y="241.999" type="curve" smooth="yes"/>
      <point x="355.007" y="109.599"/>
      <point x="240" y="-5"/>
      <point x="40" y="-5" type="curve"/>
      <point x="40" y="115.05" type="line"/>
      <point x="150.206" y="115.192"/>
      <point x="264.943" y="159.049"/>
      <point x="264.943" y="249.999" type="curve" smooth="yes"/>
      <point x="264.943" y="332.399"/>
      <point x="173.569" y="366.773"/>
      <point x="74.6466" y="377.069" type="curve"/>
    </contour>
  </outline>
</glyph>
<glyph name="four" format="2">
  <advance width="467"/>
  <unicode hex="0034"/>
  <outline>
    <contour>
      <point x="305" y="700" type="line"/>
      <point x="37.3158" y="270.18" type="line" smooth="yes"/>
      <point x="-4.66539" y="202.771"/>
      <point x="15.8344" y="151.093"/>
      <point x="80.2342" y="150.964" type="curve" smooth="yes"/>
      <point x="284.435" y="150.555" type="line"/>
      <point x="275" y="0" type="line"/>
      <point x="385" y="0" type="line"/>
      <point x="384.699" y="150.708" type="line"/>
      <point x="465.93" y="150.626" type="line"/>
      <point x="466.22" y="261.056" type="line"/>
      <point x="384.58" y="257.04" type="line"/>
      <point x="385" y="700" type="line"/>
    </contour>
    <contour>
      <point x="135.096" y="239.789" type="line" smooth="yes"/>
      <point x="120.65" y="238.66"/>
      <point x="117.105" y="244.795"/>
      <point x="124.864" y="257.039" type="curve" smooth="yes"/>
      <point x="289.891" y="517.439" type="line"/>
      <point x="305" y="540" type="line"/>
      <point x="291.347" y="252" type="line"/>
    </contour>
  </outline>
</glyph>
<glyph name="five" format="2">
  <advance width="397"/>
  <unicode hex="0035"/>
  <outline>
    <contour>
      <point x="311.107" y="700.999" type="line"/>
      <point x="311.107" y="581.4" type="line"/>
      <point x="152" y="618.4" type="line" smooth="yes"/>
      <point x="131.92" y="623.07"/>
      <point x="122.042" y="615.848"/>
      <point x="121.9" y="593.098" type="curve" smooth="yes"/>
      <point x="121" y="449.069" type="line"/>
      <point x="279.486" y="429.069"/>
      <point x="351.007" y="357.971"/>
      <point x="351.007" y="241.999" type="curve" smooth="yes"/>
      <point x="351.007" y="109.597"/>
      <point x="235.99" y="-5"/>
      <point x="46" y="-5" type="curve"/>
      <point x="46" y="115.06" type="line"/>
      <point x="146.266" y="115.06"/>
      <point x="260.943" y="155.054"/>
      <point x="260.943" y="249.999" type="curve" smooth="yes"/>
      <point x="260.943" y="332.4"/>
      <point x="169.63" y="367.069"/>
      <point x="40.6466" y="377.069" type="curve"/>
      <point x="40.9352" y="648.099" type="line" smooth="yes"/>
      <point x="40.9729" y="683.504"/>
      <point x="54.541" y="700.999"/>
      <point x="91.0021" y="700.999" type="curve" smooth="yes"/>
    </contour>
  </outline>
</glyph>
<glyph name="seven" format="2">
  <advance width="286"/>
  <unicode hex="0037"/>
  <outline>
    <contour>
      <point x="0" y="700" type="line"/>
      <point x="220.286" y="700" type="line"/>
      <point x="241.272" y="700"/>
      <point x="248.272" y="690"/>
      <point x="245" y="670" type="curve"/>
      <point x="140" y="0" type="line"/>
      <point x="19" y="0" type="line"/>
      <point x="163" y="605" type="line"/>
      <point x="165.135" y="617.136"/>
      <point x="160.237" y="622.012"/>
      <point x="150.247" y="620" type="curve"/>
      <point x="0" y="580" type="line"/>
    </contour>
  </outline>
</glyph>
<glyph name="nine" format="2">
  <advance width="446"/>
  <unicode hex="0039"/>
  <outline>
    <contour>
      <point x="410.007" y="360" type="line"/>
      <point x="341.31" y="251.313"/>
      <point x="289.818" y="197"/>
      <point x="214.214" y="197" type="curve" smooth="yes"/>
      <point x="93.9518" y="197"/>
      <point x="45.0069" y="332.641"/>
      <point x="45.0069" y="432" type="curve" smooth="yes"/>
      <point x="45.0069" y="521.257"/>
      <point x="73.9838" y="705"/>
      <point x="224.007" y="705" type="curve" smooth="yes"/>
      <point x="411" y="705"/>
      <point x="410.007" y="448"/>
      <point x="410.007" y="360" type="curve"/>
      <point x="311.007" y="-3" type="line"/>
      <point x="189.804" y="-3" type="line"/>
      <point x="323.007" y="365" type="line"/>
      <point x="323.007" y="460"/>
      <point x="278.007" y="622"/>
      <point x="212.007" y="622" type="curve" smooth="yes"/>
      <point x="156.007" y="622"/>
      <point x="144.057" y="529.257"/>
      <point x="144.057" y="484" type="curve" smooth="yes"/>
      <point x="144.057" y="361.651"/>
      <point x="193.697" y="289.32"/>
      <point x="245.219" y="289.646" type="curve" smooth="yes"/>
      <point x="286.952" y="289.911"/>
      <point x="306.975" y="325.06"/>
      <point x="323.007" y="365" type="curve"/>
    </contour>
  </outline>
</glyph>
<glyph name="colon" format="2">
  <advance width="248"/>
  <unicode hex="003A"/>
  <outline>
    <contour>
      <point x="159" y="90" type="curve" smooth="yes"/>
      <point x="176.385" y="109.868"/>
      <point x="176.385" y="150.132"/>
      <point x="159" y="170" type="curve" smooth="yes"/>
      <point x="143.789" y="187.385"/>
      <point x="104.211" y="187.385"/>
      <point x="89" y="170" type="curve" smooth="yes"/>
      <point x="71.6155" y="150.132"/>
      <point x="71.6155" y="109.868"/>
      <point x="89" y="90" type="curve" smooth="yes"/>
      <point x="104.211" y="72.6155"/>
      <point x="143.789" y="72.6155"/>
    </contour>
    <contour>
      <point x="159" y="252" type="curve" smooth="yes"/>
      <point x="176.385" y="271.868"/>
      <point x="176.385" y="312.132"/>
      <point x="159" y="332" type="curve" smooth="yes"/>
      <point x="143.789" y="349.385"/>
      <point x="104.211" y="349.385"/>
      <point x="89" y="332" type="curve" smooth="yes"/>
      <point x="71.6155" y="312.132"/>
      <point x="71.6155" y="271.868"/>
      <point x="89" y="252" type="curve" smooth="yes"/>
      <point x="104.211" y="234.615"/>
      <point x="143.789" y="234.615"/>
    </contour>
  </outline>
</glyph>
<glyph name="semicolon" format="2">
  <advance width="191"/>
  <unicode hex="003B"/>
  <outline>
    <contour>
      <point x="130" y="0" type="curve" smooth="yes"/>
      <point x="138.977" y="28.3109"/>
      <point x="136" y="60.3"/>
      <point x="136" y="90" type="curve"/>
      <point x="56" y="90" type="line"/>
      <point x="56" y="60.3"/>
      <point x="55.137" y="29.2524"/>
      <point x="50" y="0" type="curve" smooth="yes"/>
      <point x="43.1219" y="-39.1667"/>
      <point x="31.88" y="-77.05"/>
      <point x="20" y="-115" type="curve"/>
      <point x="71" y="-115" type="line"/>
      <point x="92.45" y="-77.05"/>
      <point x="116.824" y="-41.5537"/>
    </contour>
    <contour>
      <point x="134" y="162" type="curve" smooth="yes"/>
      <point x="152.668" y="180.668"/>
      <point x="152.668" y="219.332"/>
      <point x="134" y="238" type="curve" smooth="yes"/>
      <point x="115.332" y="256.668"/>
      <point x="76.6676" y="256.668"/>
      <point x="58" y="238" type="curve" smooth="yes"/>
      <point x="39.3324" y="219.332"/>
      <point x="39.3324" y="180.668"/>
      <point x="58" y="162" type="curve" smooth="yes"/>
      <point x="76.6676" y="143.332"/>
      <point x="115.332" y="143.332"/>
    </contour>
  </outline>
</glyph>
<glyph name="less" format="2">
  <advance width="367"/>
  <unicode hex="003C"/>
  <outline>
    <contour>
      <point x="305" y="430" type="line"/>
      <point x="40" y="275.452" type="line"/>
      <point x="306" y="120" type="line"/>
      <point x="306.016" y="233.803" type="line"/>
      <point x="150" y="275.453" type="line"/>
      <point x="305" y="315.981" type="line"/>
    </contour>
  </outline>
</glyph>
<glyph name="equal" format="2">
  <advance width="510"/>
  <unicode hex="003D"/>
  <outline>
    <contour>
      <point x="130" y="100" type="line"/>
      <point x="130" y="180" type="line"/>
      <point x="430" y="180" type="line"/>
      <point x="430" y="70" type="line"/>
    </contour>
    <contour>
      <point x="130" y="261" type="line"/>
      <point x="130" y="341" type="line"/>
      <point x="430" y="341" type="line"/>
      <point x="430" y="231" type="line"/>
    </contour>
  </outline>
</glyph>
<glyph name="question" format="2">
  <advance width="400"/>
  <unicode hex="003F"/>
  <outline>
    <contour>
      <point x="159" y="0" type="curve" smooth="yes"/>
      <point x="177.668" y="18.6676"/>
      <point x="177.668" y="61.3324"/>
      <point x="159" y="80" type="curve" smooth="yes"/>
      <point x="140.332" y="98.6676"/>
      <point x="97.6676" y="98.6676"/>
      <point x="79" y="80" type="curve" smooth="yes"/>
      <point x="60.3324" y="61.3324"/>
      <point x="60.3324" y="18.6676"/>
      <point x="79" y="0" type="curve" smooth="yes"/>
      <point x="97.6676" y="-18.6676"/>
      <point x="140.332" y="-18.6676"/>
    </contour>
    <contour>
      <point x="80" y="180" type="line"/>
      <point x="80" y="337.599" type="line"/>
      <point x="147.8" y="401.661"/>
      <point x="238.448" y="465.746"/>
      <point x="239.093" y="563" type="curve" smooth="yes"/>
      <point x="239.676" y="651.001"/>
      <point x="126.383" y="629.941"/>
      <point x="60" y="579.941" type="curve"/>
      <point x="60" y="700" type="line"/>
      <point x="249.958" y="700"/>
      <point x="319.948" y="685"/>
      <point x="319.996" y="564" type="curve" smooth="yes"/>
      <point x="320.033" y="469.745"/>
      <point x="260.42" y="402.859"/>
      <point x="161.367" y="309.339" type="curve"/>
      <point x="161.367" y="179.543" type="line"/>
    </contour>
  </outline>
</glyph>
<glyph name="A" format="2">
  <advance width="511"/>
  <unicode hex="0041"/>
  <outline>
    <contour>
      <point x="258" y="710" type="line" smooth="yes"/>
      <point x="11" y="710"/>
      <point x="31" y="331"/>
      <point x="31" y="0" type="curve"/>
      <point x="151" y="0" type="line"/>
      <point x="134" y="186" type="line"/>
      <point x="375" y="186" type="line"/>
      <point x="360" y="0" type="line"/>
      <point x="480" y="0" type="line"/>
      <point x="480" y="331"/>
      <point x="501" y="710"/>
      <point x="259" y="710" type="curve" smooth="yes"/>
    </contour>
    <contour>
      <point x="127" y="266" type="line"/>
      <point x="119" y="340"/>
      <point x="112" y="630"/>
      <point x="259" y="630" type="curve" smooth="yes"/>
      <point x="391" y="630"/>
      <point x="394" y="350"/>
      <point x="384" y="266" type="curve"/>
    </contour>
  </outline>
</glyph>
<glyph name="B" format="2">
  <advance width="533"/>
  <unicode hex="0042"/>
  <outline>
    <contour>
      <point x="40" y="700" type="line"/>
      <point x="235" y="700" type="line" smooth="yes"/>
      <point x="364" y="700"/>
      <point x="431" y="625"/>
      <point x="431" y="540" type="curve" smooth="yes"/>
      <point x="431" y="485"/>
      <point x="409" y="431"/>
      <point x="352" y="397" type="curve"/>
      <point x="410" y="387"/>
      <point x="501.034" y="325"/>
      <point x="500.486" y="213" type="curve" smooth="yes"/>
      <point x="499.786" y="70"/>
      <point x="402" y="-0.0282822"/>
      <point x="281" y="-0.0189822" type="curve" smooth="yes"/>
      <point x="40" y="0" type="line"/>
    </contour>
    <contour>
      <point x="137" y="425" type="line"/>
      <point x="202" y="425" type="line"/>
      <point x="300" y="426"/>
      <point x="336.023" y="483.975"/>
      <point x="335.594" y="540.003" type="curve" smooth="yes"/>
      <point x="335.342" y="572.838"/>
      <point x="318.618" y="622"/>
      <point x="229" y="622" type="curve" smooth="yes"/>
      <point x="148" y="622" type="line"/>
    </contour>
    <contour>
      <point x="119.961" y="79.3558" type="line"/>
      <point x="233" y="79.3558" type="line" smooth="yes"/>
      <point x="330" y="79.3558"/>
      <point x="392.848" y="146"/>
      <point x="392.98" y="216" type="curve" smooth="yes"/>
      <point x="393.143" y="303"/>
      <point x="336" y="344.942"/>
      <point x="251" y="344.926" type="curve" smooth="yes"/>
      <point x="133" y="344.905" type="line"/>
    </contour>
  </outline>
</glyph>
<glyph name="C" format="2">
  <advance width="525"/>
  <unicode hex="0043"/>
  <outline>
    <contour>
      <point x="492.168" y="79.6592" type="line"/>
      <point x="446.843" y="35.0864"/>
      <point x="385.64" y="-9.99509"/>
      <point x="292.529" y="-10" type="curve" smooth="yes"/>
      <point x="76.3865" y="-10.0114"/>
      <point x="45.6419" y="233.283"/>
      <point x="45.2905" y="349.832" type="curve" smooth="yes"/>
      <point x="44.9733" y="455.041"/>
      <point x="77.3702" y="710.126"/>
      <point x="296.206" y="710.132" type="curve" smooth="yes"/>
      <point x="389.401" y="710.135"/>
      <point x="448.481" y="664.771"/>
      <point x="478.287" y="620.465" type="curve"/>
      <point x="398.067" y="553" type="line"/>
      <point x="370" y="578"/>
      <point x="324" y="621.529"/>
      <point x="268" y="621.529" type="curve" smooth="yes"/>
      <point x="173.506" y="621.529"/>
      <point x="138.937" y="515.668"/>
      <point x="138.937" y="408.126" type="curve" smooth="yes"/>
      <point x="138.937" y="263"/>
      <point x="194.039" y="80.6158"/>
      <point x="323.836" y="75.9421" type="curve" smooth="yes"/>
      <point x="350" y="75"/>
      <point x="393" y="85"/>
      <point x="441.623" y="124.442" type="curve"/>
    </contour>
  </outline>
</glyph>
<glyph name="D" format="2">
  <advance width="537"/>
  <unicode hex="0044"/>
  <outline>
    <contour>
      <point x="40" y="700" type="line"/>
      <point x="239.809" y="700.132" type="line" smooth="yes"/>
      <point x="461.865" y="700.279"/>
      <point x="491.328" y="455"/>
      <point x="491.016" y="351.246" type="curve" smooth="yes"/>
      <point x="490.665" y="234.697"/>
      <point x="459.769" y="0"/>
      <point x="239.769" y="0" type="curve" smooth="yes"/>
      <point x="40" y="0" type="line"/>
    </contour>
    <contour>
      <point x="119.92" y="79.3558" type="line"/>
      <point x="212.471" y="79.3558" type="line"/>
      <point x="342.021" y="83.7717"/>
      <point x="397.37" y="263.914"/>
      <point x="397.37" y="409.54" type="curve" smooth="yes"/>
      <point x="397.37" y="517.081"/>
      <point x="336.675" y="617.955"/>
      <point x="242" y="617.929" type="curve" smooth="yes"/>
      <point x="150" y="617.905" type="line"/>
    </contour>
  </outline>
</glyph>
<glyph name="E" format="2">
  <advance width="452"/>
  <unicode hex="0045"/>
  <outline>
    <contour>
      <point x="110" y="700" type="curve" smooth="yes"/>
      <point x="410" y="700" type="line"/>
      <point x="410" y="580" type="line"/>
      <point x="178.057" y="622.925" type="line" smooth="yes"/>
      <point x="136.758" y="630.569"/>
      <point x="125.218" y="619.047"/>
      <point x="125.218" y="572.166" type="curve"/>
      <point x="125.845" y="382" type="line"/>
      <point x="350" y="382" type="line"/>
      <point x="350" y="272" type="line"/>
      <point x="182.057" y="303.925" type="line"/>
      <point x="140.401" y="312.601"/>
      <point x="124.829" y="299.588"/>
      <point x="124.829" y="253.258" type="curve"/>
      <point x="124.756" y="126.296" type="line" smooth="yes"/>
      <point x="124.73" y="79.7203"/>
      <point x="136.732" y="68.5719"/>
      <point x="178.057" y="76.0745" type="curve" smooth="yes"/>
      <point x="420" y="120" type="line"/>
      <point x="420" y="0" type="line"/>
      <point x="110" y="0" type="line" smooth="yes"/>
      <point x="50.0083" y="0"/>
      <point x="40" y="40.4353"/>
      <point x="40" y="78" type="curve" smooth="yes"/>
      <point x="40" y="622" type="line"/>
      <point x="40.224" y="674.373"/>
      <point x="63.2225" y="700"/>
    </contour>
  </outline>
</glyph>
<glyph name="F" format="2">
  <advance width="430"/>
  <unicode hex="0046"/>
  <outline>
    <contour>
      <point x="110" y="700" type="curve" smooth="yes"/>
      <point x="410" y="700" type="line"/>
      <point x="410" y="580" type="line"/>
      <point x="178.057" y="630.925" type="line" smooth="yes"/>
      <point x="137.034" y="639.932"/>
      <point x="118.218" y="627.047"/>
      <point x="118.218" y="580.166" type="curve"/>
      <point x="121.845" y="382" type="line"/>
      <point x="350" y="382" type="line"/>
      <point x="350" y="272" type="line"/>
      <point x="182.057" y="311.925" type="line"/>
      <point x="140.401" y="320.601"/>
      <point x="121.829" y="307.588"/>
      <point x="121.829" y="261.258" type="curve" smooth="yes"/>
      <point x="121.829" y="208"/>
      <point x="123.994" y="156.876"/>
      <point x="160" y="0" type="curve"/>
      <point x="40" y="0" type="line"/>
      <point x="40" y="211.526"/>
      <point x="40" y="427.484"/>
      <point x="40" y="622" type="curve" smooth="yes"/>
      <point x="40" y="659.565"/>
      <point x="50.0083" y="700"/>
    </contour>
  </outline>
</glyph>
<glyph name="G" format="2">
  <advance width="541"/>
  <unicode hex="0047"/>
  <outline>
    <contour>
      <point x="493.168" y="89.6592" type="line"/>
      <point x="447.843" y="45.0864"/>
      <point x="387.055" y="0.074646"/>
      <point x="293.265" y="0.052046" type="curve" smooth="yes"/>
      <point x="77.2039" y="0"/>
      <point x="45.8942" y="221.245"/>
      <point x="46" y="371.245" type="curve" smooth="yes"/>
      <point x="46.074" y="476.133"/>
      <point x="75.1502" y="720.132"/>
      <point x="297.206" y="720.132" type="curve" smooth="yes"/>
      <point x="390.401" y="720.132"/>
      <point x="449.481" y="674.771"/>
      <point x="479.287" y="630.465" type="curve"/>
      <point x="398.803" y="563" type="line"/>
      <point x="370.736" y="588"/>
      <point x="324.736" y="631.529"/>
      <point x="268.736" y="631.529" type="curve" smooth="yes"/>
      <point x="173.82" y="631.529"/>
      <point x="139.673" y="526.106"/>
      <point x="139.673" y="418.564" type="curve" smooth="yes"/>
      <point x="139.673" y="273"/>
      <point x="194.775" y="90.6158"/>
      <point x="324.572" y="85.9421" type="curve" smooth="yes"/>
      <point x="350.931" y="84.9929"/>
      <point x="394" y="95"/>
      <point x="412" y="134.442" type="curve"/>
      <point x="406.38" y="227.416" type="line" smooth="yes"/>
      <point x="403.428" y="276.248"/>
      <point x="395" y="302"/>
      <point x="353" y="302" type="curve" smooth="yes"/>
      <point x="246.695" y="302" type="line"/>
      <point x="246.695" y="382.11" type="line"/>
      <point x="435" y="382" type="line" smooth="yes"/>
      <point x="494.992" y="381.965"/>
      <point x="507.283" y="321.495"/>
      <point x="505" y="284" type="curve" smooth="yes"/>
    </contour>
  </outline>
</glyph>
<glyph name="H" format="2">
  <advance width="586"/>
  <unicode hex="0048"/>
  <outline>
    <contour>
      <point x="40" y="700" type="line"/>
      <point x="160" y="700" type="line"/>
      <point x="149.583" y="500" type="line"/>
      <point x="147.025" y="451.018"/>
      <point x="149" y="412"/>
      <point x="200.342" y="412" type="curve"/>
      <point x="369.427" y="412" type="line"/>
      <point x="424" y="412"/>
      <point x="426" y="441"/>
      <point x="426" y="500" type="curve"/>
      <point x="426" y="700" type="line"/>
      <point x="546" y="700" type="line"/>
      <point x="506" y="0" type="line"/>
      <point x="426" y="0" type="line"/>
      <point x="426" y="241.057" type="line"/>
      <point x="426" y="299"/>
      <point x="402.146" y="301.762"/>
      <point x="369.8" y="305.507" type="curve"/>
      <point x="200.108" y="325.156" type="line"/>
      <point x="158" y="331.329"/>
      <point x="141.029" y="332.015"/>
      <point x="137.371" y="274.623" type="curve"/>
      <point x="120" y="0" type="line"/>
      <point x="40" y="0" type="line"/>
    </contour>
  </outline>
</glyph>
<glyph name="J" format="2">
  <advance width="406"/>
  <unicode hex="004A"/>
  <outline>
    <contour>
      <point x="246" y="700" type="line"/>
      <point x="366" y="700" type="line"/>
      <point x="366" y="216" type="line"/>
      <point x="365.817" y="28"/>
      <point x="273" y="-10"/>
      <point x="196.769" y="-10" type="curve" smooth="yes"/>
      <point x="114" y="-10"/>
      <point x="66" y="35.0864"/>
      <point x="20.8474" y="79.6592" type="curve"/>
      <point x="20.8474" y="221" type="line"/>
      <point x="65" y="154"/>
      <point x="131" y="70"/>
      <point x="196.769" y="70" type="curve" smooth="yes"/>
      <point x="224" y="70"/>
      <point x="297.458" y="69.6374"/>
      <point x="286" y="210" type="curve" smooth="yes"/>
    </contour>
  </outline>
</glyph>
<glyph name="K" format="2">
  <advance width="472"/>
  <unicode hex="004B"/>
  <outline>
    <contour>
      <point x="120" y="0" type="line"/>
      <point x="129.166" y="307.04" type="line"/>
      <point x="137.166" y="307.04" type="line" smooth="yes"/>
      <point x="203.166" y="307.04"/>
      <point x="285" y="117.22"/>
      <point x="325" y="-0.079483" type="curve"/>
      <point x="451.293" y="-0.079483" type="line"/>
      <point x="377" y="137"/>
      <point x="309.258" y="289.717"/>
      <point x="221" y="342" type="curve"/>
      <point x="334.004" y="370.263"/>
      <point x="412" y="549.905"/>
      <point x="433" y="700" type="curve"/>
      <point x="312" y="700" type="line"/>
      <point x="295" y="571.43"/>
      <point x="261.452" y="387.383"/>
      <point x="133.039" y="389.05" type="curve"/>
      <point x="160" y="700" type="line"/>
      <point x="40" y="700" type="line"/>
      <point x="40" y="0" type="line"/>
    </contour>
  </outline>
</glyph>
<glyph name="L" format="2">
  <advance width="440"/>
  <unicode hex="004C"/>
  <outline>
    <contour>
      <point x="40" y="700" type="line"/>
      <point x="160" y="700" type="line"/>
      <point x="104.806" y="120" type="line" smooth="yes"/>
      <point x="100.07" y="70.224"/>
      <point x="119.846" y="60.9698"/>
      <point x="161.057" y="69.0745" type="curve" smooth="yes"/>
      <point x="420" y="120" type="line"/>
      <point x="420" y="0" type="line"/>
      <point x="110" y="0" type="line" smooth="yes"/>
      <point x="49.9513" y="0"/>
      <point x="40" y="40.4353"/>
      <point x="40" y="78" type="curve" smooth="yes"/>
    </contour>
  </outline>
</glyph>
<glyph name="M" format="2">
  <advance width="629"/>
  <unicode hex="004D"/>
  <outline>
    <contour>
      <point x="352" y="200" type="curve"/>
      <point x="272" y="200" type="line"/>
      <point x="161.711" y="559.606"/>
      <point x="141" y="580"/>
      <point x="129" y="580" type="curve" smooth="yes"/>
      <point x="95" y="580"/>
      <point x="122" y="448"/>
      <point x="146" y="0" type="curve"/>
      <point x="36" y="0" type="line"/>
      <point x="34.9658" y="461"/>
      <point x="26" y="700"/>
      <point x="116" y="700" type="curve"/>
      <point x="116" y="700" type="line"/>
      <point x="174" y="700"/>
      <point x="206.325" y="677.424"/>
      <point x="312" y="325" type="curve"/>
      <point x="417.689" y="677.438"/>
      <point x="440.448" y="700"/>
      <point x="498" y="700" type="curve"/>
      <point x="498" y="700" type="line"/>
      <point x="598" y="700"/>
      <point x="589" y="471"/>
      <point x="588" y="0" type="curve"/>
      <point x="478" y="0" type="line"/>
      <point x="499" y="408.13"/>
      <point x="513" y="571"/>
      <point x="486" y="571" type="curve" smooth="yes"/>
      <point x="473" y="571"/>
      <point x="452" y="530"/>
    </contour>
  </outline>
</glyph>
<glyph name="N" format="2">
  <advance width="560"/>
  <unicode hex="004E"/>
  <outline>
    <contour>
      <point x="399" y="700" type="curve"/>
      <point x="519" y="700" type="line"/>
      <point x="529" y="179"/>
      <point x="539" y="0"/>
      <point x="429" y="0" type="curve"/>
      <point x="429" y="0" type="line"/>
      <point x="342" y="0"/>
      <point x="316.92" y="120.577"/>
      <point x="247" y="318.06" type="curve" smooth="yes"/>
      <point x="162.754" y="556.006"/>
      <point x="151.916" y="590"/>
      <point x="129" y="590" type="curve" smooth="yes"/>
      <point x="86" y="590"/>
      <point x="116" y="408.13"/>
      <point x="160" y="0" type="curve"/>
      <point x="40" y="0" type="line"/>
      <point x="29" y="521"/>
      <point x="30" y="700"/>
      <point x="130" y="700" type="curve"/>
      <point x="130" y="700" type="line"/>
      <point x="218" y="700"/>
      <point x="238.838" y="573.269"/>
      <point x="330" y="321.227" type="curve" smooth="yes"/>
      <point x="396.282" y="137.973"/>
      <point x="406" y="80"/>
      <point x="429" y="80" type="curve" smooth="yes"/>
      <point x="466" y="80"/>
      <point x="439" y="291.87"/>
    </contour>
  </outline>
</glyph>
<glyph name="O" format="2">
  <advance width="586"/>
  <unicode hex="004F"/>
  <outline>
    <contour>
      <point x="292.529" y="710.031" type="curve"/>
      <point x="292.529" y="710.031" type="line"/>
      <point x="504" y="710.053"/>
      <point x="540.059" y="467.442"/>
      <point x="540.059" y="351.199" type="curve" smooth="yes"/>
      <point x="540.059" y="246.716"/>
      <point x="511.34" y="-10"/>
      <point x="292.529" y="-10" type="curve"/>
      <point x="292.529" y="-10" type="line"/>
      <point x="75" y="-10.0106"/>
      <point x="45" y="233.589"/>
      <point x="45" y="349.832" type="curve" smooth="yes"/>
      <point x="45" y="455.134"/>
      <point x="73.7189" y="710.031"/>
    </contour>
    <contour>
      <point x="257.673" y="621.529" type="line"/>
      <point x="173.506" y="621.529"/>
      <point x="138.937" y="523.856"/>
      <point x="138.937" y="408.126" type="curve" smooth="yes"/>
      <point x="138.937" y="263"/>
      <point x="194" y="79.3595"/>
      <point x="323.805" y="75.9421" type="curve"/>
      <point x="323.805" y="75.9421" type="line"/>
      <point x="407.973" y="75.9421"/>
      <point x="442.411" y="173.701"/>
      <point x="442.541" y="289.367" type="curve" smooth="yes"/>
      <point x="442.704" y="434"/>
      <point x="387" y="618.111"/>
      <point x="257.673" y="621.529" type="curve"/>
    </contour>
  </outline>
</glyph>
<glyph name="P" format="2">
  <advance width="526"/>
  <unicode hex="0050"/>
  <outline>
    <contour>
      <point x="140.961" y="383.356" type="line"/>
      <point x="233" y="383.356" type="line" smooth="yes"/>
      <point x="330" y="383.356"/>
      <point x="392.836" y="440"/>
      <point x="392.979" y="510" type="curve" smooth="yes"/>
      <point x="393.143" y="590"/>
      <point x="325" y="619.942"/>
      <point x="257" y="619.927" type="curve" smooth="yes"/>
      <point x="154" y="619.905" type="line"/>
    </contour>
    <contour>
      <point x="281" y="304" type="curve" smooth="yes"/>
      <point x="138.119" y="304.165" type="line"/>
      <point x="120" y="0" type="line"/>
      <point x="40" y="0" type="line"/>
      <point x="40" y="700" type="line"/>
      <point x="234" y="699.867" type="line" smooth="yes"/>
      <point x="377" y="699.77"/>
      <point x="481" y="653"/>
      <point x="481" y="490" type="curve" smooth="yes"/>
      <point x="481" y="405"/>
      <point x="439" y="303.817"/>
    </contour>
  </outline>
</glyph>
<glyph name="Q" format="2">
  <advance width="667"/>
  <unicode hex="0051"/>
  <outline>
    <contour>
      <point x="291" y="301" type="curve"/>
      <point x="372" y="301" type="line"/>
      <point x="405" y="208.27"/>
      <point x="474.61" y="62.4289"/>
      <point x="549" y="93" type="curve" smooth="yes"/>
      <point x="622" y="123" type="line"/>
      <point x="622" y="0" type="line"/>
      <point x="534" y="0" type="line" smooth="yes"/>
      <point x="406" y="0"/>
      <point x="335" y="172"/>
    </contour>
    <contour>
      <point x="292.529" y="710.031" type="curve"/>
      <point x="292.529" y="710.031" type="line"/>
      <point x="504" y="710.053"/>
      <point x="540.059" y="467.442"/>
      <point x="540.059" y="351.199" type="curve" smooth="yes"/>
      <point x="540.059" y="246.716"/>
      <point x="511.34" y="-10"/>
      <point x="292.529" y="-10" type="curve"/>
      <point x="292.529" y="-10" type="line"/>
      <point x="75" y="-10.0106"/>
      <point x="45" y="233.589"/>
      <point x="45" y="349.832" type="curve" smooth="yes"/>
      <point x="45" y="455.134"/>
      <point x="73.7189" y="710.031"/>
    </contour>
    <contour>
      <point x="257.673" y="621.529" type="line"/>
      <point x="173.506" y="621.529"/>
      <point x="138.937" y="523.856"/>
      <point x="138.937" y="408.126" type="curve" smooth="yes"/>
      <point x="138.937" y="263"/>
      <point x="194" y="79.3595"/>
      <point x="323.805" y="75.9421" type="curve"/>
      <point x="323.805" y="75.9421" type="line"/>
      <point x="407.973" y="75.9421"/>
      <point x="442.411" y="173.701"/>
      <point x="442.541" y="289.367" type="curve" smooth="yes"/>
      <point x="442.704" y="434"/>
      <point x="387" y="618.111"/>
      <point x="257.673" y="621.529" type="curve"/>
    </contour>
  </outline>
</glyph>
<glyph name="R" format="2">
  <advance width="501"/>
  <unicode hex="0052"/>
  <outline>
    <contour>
      <point x="311.15" y="305.287" type="curve" smooth="yes"/>
      <point x="281" y="304" type="line"/>
      <point x="343" y="245"/>
      <point x="386" y="137"/>
      <point x="460.293" y="-0.0794983" type="curve"/>
      <point x="333.949" y="-0.0794983" type="line"/>
      <point x="294.075" y="117.265"/>
      <point x="214" y="304.165"/>
      <point x="146.119" y="304.165" type="curve" smooth="yes"/>
      <point x="138.119" y="304.165" type="line"/>
      <point x="120" y="0" type="line"/>
      <point x="40" y="0" type="line"/>
      <point x="40" y="700" type="line"/>
      <point x="234" y="699.867" type="line" smooth="yes"/>
      <point x="376.836" y="699.77"/>
      <point x="481" y="653"/>
      <point x="481" y="490" type="curve" smooth="yes"/>
      <point x="481" y="367"/>
      <point x="402.067" y="309.167"/>
    </contour>
    <contour>
      <point x="140.961" y="383.356" type="line"/>
      <point x="233" y="383.356" type="line" smooth="yes"/>
      <point x="330" y="383.356"/>
      <point x="392.836" y="440"/>
      <point x="392.979" y="510" type="curve" smooth="yes"/>
      <point x="393.143" y="590"/>
      <point x="325.368" y="619.942"/>
      <point x="257" y="619.927" type="curve" smooth="yes"/>
      <point x="154" y="619.905" type="line"/>
    </contour>
  </outline>
</glyph>
<glyph name="S" format="2">
  <advance width="531"/>
  <unicode hex="0053"/>
  <outline>
    <contour>
      <point x="35.7227" y="87.1077" type="line"/>
      <point x="80.1735" y="43.7906"/>
      <point x="150.051" y="-10"/>
      <point x="268.463" y="-10" type="curve" smooth="yes"/>
      <point x="431.79" y="-10"/>
      <point x="494.787" y="90.544"/>
      <point x="495.533" y="170.577" type="curve" smooth="yes"/>
      <point x="497.716" y="405"/>
      <point x="133" y="374"/>
      <point x="133" y="531.702" type="curve" smooth="yes"/>
      <point x="133" y="579"/>
      <point x="165" y="630.004"/>
      <point x="249.17" y="630" type="curve" smooth="yes"/>
      <point x="347.182" y="629.996"/>
      <point x="411.568" y="539.542"/>
      <point x="453.568" y="486.542" type="curve"/>
      <point x="453.568" y="627.494" type="line"/>
      <point x="422.068" y="660.697"/>
      <point x="358.098" y="710"/>
      <point x="260.253" y="710" type="curve" smooth="yes"/>
      <point x="101.927" y="710"/>
      <point x="41.9664" y="609.457"/>
      <point x="41.2301" y="534.424" type="curve" smooth="yes"/>
      <point x="38.9984" y="307"/>
      <point x="400" y="334"/>
      <point x="400" y="168.298" type="curve" smooth="yes"/>
      <point x="400" y="107"/>
      <point x="349" y="70"/>
      <point x="284.547" y="70" type="curve" smooth="yes"/>
      <point x="180" y="70"/>
      <point x="84.7028" y="178.9"/>
      <point x="35.7028" y="225.9" type="curve"/>
    </contour>
  </outline>
</glyph>
<glyph name="T" format="2">
  <advance width="460"/>
  <unicode hex="0054"/>
  <outline>
    <contour>
      <point x="20" y="580" type="curve"/>
      <point x="20" y="700" type="line"/>
      <point x="440" y="700" type="line"/>
      <point x="440" y="580" type="line"/>
      <point x="328.624" y="666"/>
      <point x="274.183" y="600.713"/>
      <point x="273.022" y="497.179" type="curve"/>
      <point x="290" y="0" type="line"/>
      <point x="170" y="0" type="line"/>
      <point x="186.978" y="497.179" type="line"/>
      <point x="185.795" y="600.713"/>
      <point x="131.355" y="666"/>
    </contour>
  </outline>
</glyph>
<glyph name="U" format="2">
  <advance width="513"/>
  <unicode hex="0055"/>
  <outline>
    <contour>
      <point x="477" y="700" type="line"/>
      <point x="477.057" y="361.199" type="line" smooth="yes"/>
      <point x="477.076" y="245.952"/>
      <point x="478.507" y="-9.67778"/>
      <point x="259.529" y="-10" type="curve"/>
      <point x="259.529" y="-10" type="line"/>
      <point x="39.5161" y="-9.7289"/>
      <point x="40.9563" y="245.999"/>
      <point x="40.9674" y="361.085" type="curve" smooth="yes"/>
      <point x="41" y="700" type="line"/>
      <point x="162" y="700" type="line"/>
      <point x="136.053" y="361.199" type="line" smooth="yes"/>
      <point x="127.349" y="247.549"/>
      <point x="137.036" y="60.2412"/>
      <point x="259.529" y="60.3513" type="curve"/>
      <point x="259.529" y="60.3513" type="line"/>
      <point x="380.963" y="60.2594"/>
      <point x="390.671" y="247.705"/>
      <point x="381.971" y="361.199" type="curve" smooth="yes"/>
      <point x="356" y="700" type="line"/>
    </contour>
  </outline>
</glyph>
<glyph name="V" format="2">
  <advance width="529"/>
  <unicode hex="0056"/>
  <outline>
    <contour>
      <point x="267.61" y="0" type="curve"/>
      <point x="267.61" y="0" type="line"/>
      <point x="326" y="0"/>
      <point x="351" y="87.7643"/>
      <point x="509" y="700" type="curve"/>
      <point x="388" y="700" type="line"/>
      <point x="295" y="139.802"/>
      <point x="288" y="82"/>
      <point x="268" y="82" type="curve" smooth="yes"/>
      <point x="249" y="82"/>
      <point x="242" y="139.802"/>
      <point x="141" y="700" type="curve"/>
      <point x="20" y="700" type="line"/>
      <point x="186" y="87.8641"/>
      <point x="211" y="0"/>
    </contour>
  </outline>
</glyph>
<glyph name="W" format="2">
  <advance width="858"/>
  <unicode hex="0057"/>
  <outline>
    <contour>
      <point x="247.61" y="0" type="curve"/>
      <point x="247.6" y="0" type="line"/>
      <point x="307" y="0"/>
      <point x="315" y="24.8641"/>
      <point x="429" y="567" type="curve"/>
      <point x="543" y="24.8641"/>
      <point x="551.179" y="0"/>
      <point x="610.852" y="0" type="curve"/>
      <point x="610.852" y="0" type="line"/>
      <point x="675.405" y="0"/>
      <point x="699" y="87.8677"/>
      <point x="838" y="700" type="curve"/>
      <point x="717" y="700" type="line"/>
      <point x="629.891" y="140.225"/>
      <point x="625.782" y="81.6791"/>
      <point x="610.535" y="82" type="curve"/>
      <point x="587.997" y="81.6791"/>
      <point x="595" y="138.215"/>
      <point x="489" y="670" type="curve"/>
      <point x="369" y="670" type="line"/>
      <point x="263" y="138.215"/>
      <point x="270" y="81.7518"/>
      <point x="247.938" y="82" type="curve" smooth="yes"/>
      <point x="232" y="82.1793"/>
      <point x="228" y="139.792"/>
      <point x="141" y="700" type="curve"/>
      <point x="20" y="700" type="line"/>
      <point x="159" y="87.8641"/>
      <point x="183" y="0"/>
    </contour>
  </outline>
</glyph>
<glyph name="X" format="2">
  <advance width="577"/>
  <unicode hex="0058"/>
  <outline>
    <contour>
      <point x="459" y="0" type="curve"/>
      <point x="543" y="0" type="line"/>
      <point x="491.472" y="118.869"/>
      <point x="405.897" y="326.34"/>
      <point x="338.369" y="360.21" type="curve"/>
      <point x="410.517" y="412.34"/>
      <point x="494.852" y="587.869"/>
      <point x="557" y="700" type="curve"/>
      <point x="433" y="700" type="line"/>
      <point x="396.965" y="613.353"/>
      <point x="331.761" y="437.007"/>
      <point x="288.57" y="397.007" type="curve"/>
      <point x="242.789" y="437.007"/>
      <point x="179.005" y="613.353"/>
      <point x="145" y="700" type="curve"/>
      <point x="20" y="700" type="line"/>
      <point x="77.5018" y="584.591"/>
      <point x="167.201" y="403.685"/>
      <point x="239.702" y="358.277" type="curve"/>
      <point x="171.821" y="322.685"/>
      <point x="85.8817" y="115.591"/>
      <point x="34" y="0" type="curve"/>
      <point x="128" y="0" type="line"/>
      <point x="163.636" y="92.5396"/>
      <point x="237.537" y="259.724"/>
      <point x="288.57" y="299.724" type="curve"/>
      <point x="344.721" y="259.724"/>
      <point x="417.406" y="92.5396"/>
    </contour>
  </outline>
</glyph>
<glyph name="Y" format="2">
  <advance width="471"/>
  <unicode hex="0059"/>
  <outline>
    <contour>
      <point x="118" y="0" type="line"/>
      <point x="216" y="0" type="line"/>
      <point x="451" y="700" type="line"/>
      <point x="328" y="700" type="line"/>
      <point x="275" y="393.399"/>
      <point x="266" y="302"/>
      <point x="230" y="302" type="curve" smooth="yes"/>
      <point x="198" y="302"/>
      <point x="178" y="400"/>
      <point x="141" y="700" type="curve"/>
      <point x="20" y="700" type="line"/>
      <point x="135" y="273.04"/>
      <point x="151" y="224"/>
      <point x="235" y="229.718" type="curve"/>
    </contour>
  </outline>
</glyph>
<glyph name="Z" format="2">
  <advance width="479"/>
  <unicode hex="005A"/>
  <outline>
    <contour>
      <point x="319.383" y="700" type="line" smooth="yes"/>
      <point x="493" y="700.02"/>
      <point x="483" y="566.005"/>
      <point x="296" y="356.968" type="curve" smooth="yes"/>
      <point x="204.33" y="254.495"/>
      <point x="41.983" y="70"/>
      <point x="167" y="70" type="curve" smooth="yes"/>
      <point x="207" y="70"/>
      <point x="353" y="87"/>
      <point x="442.578" y="120" type="curve"/>
      <point x="442.578" y="0" type="line"/>
      <point x="150.042" y="0" type="line" smooth="yes"/>
      <point x="-71" y="0"/>
      <point x="76.1943" y="207.887"/>
      <point x="192" y="358.414" type="curve" smooth="yes"/>
      <point x="274" y="465"/>
      <point x="388" y="630.021"/>
      <point x="280" y="630.021" type="curve" smooth="yes"/>
      <point x="253" y="630.021"/>
      <point x="165" y="617.915"/>
      <point x="68.7935" y="580" type="curve"/>
      <point x="68.7935" y="699.971" type="line"/>
    </contour>
  </outline>
</glyph>
<glyph name="bracketleft" format="2">
  <advance width="270"/>
  <unicode hex="005B"/>
  <outline>
    <contour>
      <point x="80" y="770" type="curve"/>
      <point x="80" y="-37" type="line"/>
      <point x="79.7598" y="-67.2006"/>
      <point x="100" y="-87"/>
      <point x="129.973" y="-87" type="curve"/>
      <point x="260" y="-87" type="line"/>
      <point x="260" y="23" type="line"/>
      <point x="183.334" y="0" type="line"/>
      <point x="160" y="-7" type="line"/>
      <point x="160" y="740" type="line"/>
      <point x="194.197" y="729.741" type="line"/>
      <point x="260" y="710" type="line"/>
      <point x="260" y="820" type="line"/>
      <point x="129.974" y="820" type="line"/>
      <point x="100" y="820"/>
      <point x="79.9977" y="800"/>
    </contour>
  </outline>
</glyph>
<glyph name="bracketright" format="2">
  <advance width="271"/>
  <unicode hex="005D"/>
  <outline>
    <contour>
      <point x="190.76" y="770" type="line"/>
      <point x="190.762" y="800"/>
      <point x="170.76" y="820"/>
      <point x="140.786" y="820" type="curve"/>
      <point x="10.7598" y="820" type="line"/>
      <point x="10.7598" y="710" type="line"/>
      <point x="75.4299" y="729.401" type="line"/>
      <point x="110.76" y="740" type="line"/>
      <point x="110.76" y="-7" type="line"/>
      <point x="71.1136" y="4.89386" type="line"/>
      <point x="10.7598" y="23" type="line"/>
      <point x="10.7598" y="-87" type="line"/>
      <point x="140.787" y="-87" type="line"/>
      <point x="170.76" y="-87"/>
      <point x="191" y="-67.2006"/>
      <point x="190.76" y="-37" type="curve"/>
    </contour>
  </outline>
</glyph>
<glyph name="asciicircum" format="2">
  <advance width="477"/>
  <unicode hex="005E"/>
  <outline>
    <contour>
      <point x="50.6591" y="200" type="line"/>
      <point x="150.659" y="199.636" type="line"/>
      <point x="238.659" y="584" type="line"/>
      <point x="328" y="200" type="line"/>
      <point x="427" y="200" type="line"/>
      <point x="264" y="700" type="line"/>
      <point x="214" y="700" type="line"/>
    </contour>
  </outline>
</glyph>
<glyph name="underscore" format="2">
  <advance width="330"/>
  <unicode hex="005F"/>
  <outline>
    <contour>
      <point x="30" y="-101" type="line"/>
      <point x="30" y="-21" type="line"/>
      <point x="280" y="-21" type="line"/>
      <point x="280" y="-141" type="line"/>
    </contour>
  </outline>
</glyph>
<glyph name="grave" format="2">
  <advance width="207"/>
  <unicode hex="0060"/>
  <outline>
    <contour>
      <point x="46" y="630" type="curve" smooth="yes"/>
      <point x="59.4777" y="604.855"/>
      <point x="78.19" y="586.45"/>
      <point x="97" y="565" type="curve"/>
      <point x="177" y="565" type="line"/>
      <point x="164.79" y="589.75"/>
      <point x="153.833" y="613.537"/>
      <point x="146" y="640" type="curve" smooth="yes"/>
      <point x="141.317" y="655.821"/>
      <point x="140" y="683.5"/>
      <point x="140" y="700" type="curve"/>
      <point x="30" y="700" type="line"/>
      <point x="33.3" y="680.2"/>
      <point x="36.5171" y="647.692"/>
    </contour>
  </outline>
</glyph>
<glyph name="a" format="2">
  <advance width="542"/>
  <unicode hex="0061"/>
  <outline>
    <contour>
      <point x="507" y="500" type="curve"/>
      <point x="387" y="500" type="line"/>
      <point x="419" y="143"/>
      <point x="415" y="77"/>
      <point x="385" y="77" type="curve" smooth="yes"/>
      <point x="357" y="77"/>
      <point x="358.391" y="193.893"/>
      <point x="358.391" y="284" type="curve" smooth="yes"/>
      <point x="358.391" y="411.288"/>
      <point x="317" y="500"/>
      <point x="211" y="500" type="curve" smooth="yes"/>
      <point x="95" y="500"/>
      <point x="37" y="372"/>
      <point x="37" y="250" type="curve" smooth="yes"/>
      <point x="37" y="170.998"/>
      <point x="57" y="0"/>
      <point x="207" y="0" type="curve" smooth="yes"/>
      <point x="313" y="0"/>
      <point x="340" y="100"/>
      <point x="351" y="151" type="curve"/>
      <point x="302.991" y="297.663" type="line"/>
      <point x="311" y="157.116"/>
      <point x="295" y="75.4224"/>
      <point x="225" y="77.1126" type="curve" smooth="yes"/>
      <point x="152.992" y="78.8513"/>
      <point x="117" y="206.004"/>
      <point x="117" y="290.015" type="curve" smooth="yes"/>
      <point x="117" y="348"/>
      <point x="133" y="433"/>
      <point x="199" y="433" type="curve" smooth="yes"/>
      <point x="229" y="433"/>
      <point x="274.976" y="401"/>
      <point x="283.004" y="294.943" type="curve" smooth="yes"/>
      <point x="295.578" y="128.837"/>
      <point x="288" y="0"/>
      <point x="383" y="0" type="curve"/>
      <point x="383" y="0" type="line"/>
      <point x="482" y="0"/>
      <point x="477.17" y="141.059"/>
    </contour>
  </outline>
</glyph>
<glyph name="b" format="2">
  <advance width="562"/>
  <unicode hex="0062"/>
  <outline>
    <contour>
      <point x="35" y="750" type="line"/>
      <point x="64" y="141"/>
      <point x="60" y="0"/>
      <point x="168" y="-0.005" type="curve"/>
      <point x="169" y="-0.005" type="line"/>
      <point x="274.04" y="0"/>
      <point x="274" y="128.95"/>
      <point x="259" y="295" type="curve" smooth="yes"/>
      <point x="249.443" y="400.794"/>
      <point x="285.994" y="429.121"/>
      <point x="322" y="428" type="curve" smooth="yes"/>
      <point x="395" y="425.726"/>
      <point x="445" y="293"/>
      <point x="445" y="210" type="curve" smooth="yes"/>
      <point x="445" y="116"/>
      <point x="422" y="67"/>
      <point x="362" y="67" type="curve" smooth="yes"/>
      <point x="289" y="67"/>
      <point x="247" y="185"/>
      <point x="248" y="241" type="curve"/>
      <point x="191" y="161" type="line"/>
      <point x="202" y="110"/>
      <point x="247" y="-3"/>
      <point x="353" y="-3" type="curve" smooth="yes"/>
      <point x="506" y="-3"/>
      <point x="525" y="170.998"/>
      <point x="525" y="250" type="curve" smooth="yes"/>
      <point x="525" y="369"/>
      <point x="481" y="505.015"/>
      <point x="344" y="505" type="curve" smooth="yes"/>
      <point x="234.95" y="504.988"/>
      <point x="182" y="411.277"/>
      <point x="183.608" y="289.003" type="curve" smooth="yes"/>
      <point x="184.859" y="193.902"/>
      <point x="197" y="76.9982"/>
      <point x="167" y="77" type="curve" smooth="yes"/>
      <point x="136.891" y="77.0018"/>
      <point x="123" y="143"/>
      <point x="155" y="750" type="curve"/>
    </contour>
  </outline>
</glyph>
<glyph name="c" format="2">
  <advance width="406"/>
  <unicode hex="0063"/>
  <outline>
    <contour>
      <point x="373.121" y="70.2176" type="line"/>
      <point x="333.667" y="22.549"/>
      <point x="285.077" y="-7"/>
      <point x="218" y="-7" type="curve" smooth="yes"/>
      <point x="58" y="-7"/>
      <point x="37" y="173"/>
      <point x="37" y="258" type="curve" smooth="yes"/>
      <point x="37" y="335"/>
      <point x="58" y="507.04"/>
      <point x="218" y="507.04" type="curve" smooth="yes"/>
      <point x="276.393" y="507.04"/>
      <point x="306.286" y="487.101"/>
      <point x="330.538" y="470.327" type="curve"/>
      <point x="271" y="389.325" type="line"/>
      <point x="255.062" y="406.3"/>
      <point x="234.566" y="430"/>
      <point x="195.576" y="430" type="curve" smooth="yes"/>
      <point x="139.998" y="430"/>
      <point x="116.789" y="374.935"/>
      <point x="116.576" y="297.935" type="curve" smooth="yes"/>
      <point x="116.347" y="215.089"/>
      <point x="166.576" y="72.2737"/>
      <point x="239.576" y="70" type="curve" smooth="yes"/>
      <point x="276.239" y="68.8581"/>
      <point x="302.118" y="91.8507"/>
      <point x="322.576" y="115" type="curve"/>
    </contour>
  </outline>
</glyph>
<glyph name="d" format="2">
  <advance width="552"/>
  <unicode hex="0064"/>
  <outline>
    <contour>
      <point x="517" y="750" type="curve"/>
      <point x="397" y="750" type="line"/>
      <point x="429" y="143"/>
      <point x="425" y="77"/>
      <point x="395" y="77" type="curve" smooth="yes"/>
      <point x="367" y="77"/>
      <point x="368.391" y="193.893"/>
      <point x="368.391" y="284" type="curve" smooth="yes"/>
      <point x="368.391" y="411.288"/>
      <point x="317" y="500"/>
      <point x="211" y="500" type="curve" smooth="yes"/>
      <point x="95" y="500"/>
      <point x="37" y="372"/>
      <point x="37" y="250" type="curve" smooth="yes"/>
      <point x="37" y="170.998"/>
      <point x="47" y="0"/>
      <point x="207" y="0" type="curve" smooth="yes"/>
      <point x="313" y="0"/>
      <point x="350" y="100"/>
      <point x="361" y="151" type="curve"/>
      <point x="312.991" y="297.663" type="line"/>
      <point x="321" y="157.116"/>
      <point x="295" y="75.4224"/>
      <point x="225" y="77.1126" type="curve" smooth="yes"/>
      <point x="152.992" y="78.8513"/>
      <point x="117" y="206.004"/>
      <point x="117" y="290.015" type="curve" smooth="yes"/>
      <point x="117" y="348"/>
      <point x="133" y="433"/>
      <point x="199" y="433" type="curve" smooth="yes"/>
      <point x="229" y="433"/>
      <point x="284.976" y="401"/>
      <point x="293.004" y="294.943" type="curve" smooth="yes"/>
      <point x="305.578" y="128.837"/>
      <point x="298" y="0"/>
      <point x="393" y="0" type="curve"/>
      <point x="393" y="0" type="line"/>
      <point x="492" y="0"/>
      <point x="487.17" y="141.059"/>
    </contour>
  </outline>
</glyph>
<glyph name="e" format="2">
  <advance width="427"/>
  <unicode hex="0065"/>
  <outline>
    <contour>
      <point x="373.545" y="73" type="line"/>
      <point x="334.352" y="25.2"/>
      <point x="285" y="-4"/>
      <point x="218.424" y="-4" type="curve" smooth="yes"/>
      <point x="60.8149" y="-4"/>
      <point x="37" y="175.999"/>
      <point x="37" y="261" type="curve" smooth="yes"/>
      <point x="37" y="338"/>
      <point x="55.7291" y="510.04"/>
      <point x="212" y="510.04" type="curve" smooth="yes"/>
      <point x="213" y="510.04" type="line" smooth="yes"/>
      <point x="374" y="510.04"/>
      <point x="395" y="327"/>
      <point x="395" y="281" type="curve" smooth="yes"/>
      <point x="395" y="231" type="line"/>
      <point x="50" y="231" type="line"/>
      <point x="50" y="301" type="line"/>
      <point x="303" y="301.257" type="line"/>
      <point x="297" y="338"/>
      <point x="263" y="430.726"/>
      <point x="195" y="433" type="curve"/>
      <point x="196" y="433" type="line"/>
      <point x="140.422" y="433.15"/>
      <point x="117" y="371.796"/>
      <point x="117" y="301.015" type="curve" smooth="yes"/>
      <point x="117" y="218"/>
      <point x="167" y="75.2737"/>
      <point x="240" y="73" type="curve" smooth="yes"/>
      <point x="276.737" y="71.8558"/>
      <point x="302.542" y="94.8507"/>
      <point x="323" y="118" type="curve"/>
    </contour>
  </outline>
</glyph>
<glyph name="f" format="2">
  <advance width="267"/>
  <unicode hex="0066"/>
  <outline>
    <contour>
      <point x="33" y="0" type="curve"/>
      <point x="153" y="0" type="line"/>
      <point x="124.074" y="156.537"/>
      <point x="112.767" y="251"/>
      <point x="112.767" y="331.566" type="curve" smooth="yes"/>
      <point x="112.767" y="406.821"/>
      <point x="144.704" y="432.043"/>
      <point x="171.6" y="432" type="curve" smooth="yes"/>
      <point x="193.6" y="431.95"/>
      <point x="211.05" y="417.95"/>
      <point x="227" y="401.3" type="curve"/>
      <point x="286.55" y="482.35" type="line"/>
      <point x="261.95" y="498.65"/>
      <point x="230.65" y="509.3"/>
      <point x="194" y="510" type="curve" smooth="yes"/>
      <point x="162.537" y="510.606"/>
      <point x="135.781" y="502.746"/>
      <point x="113.63" y="488.412" type="curve"/>
      <point x="114" y="538" type="line"/>
      <point x="114" y="579.858"/>
      <point x="115.121" y="678.957"/>
      <point x="173.777" y="678.957" type="curve" smooth="yes"/>
      <point x="195.699" y="678.957"/>
      <point x="221.565" y="664.413"/>
      <point x="237" y="648.3" type="curve"/>
      <point x="286.55" y="729.35" type="line"/>
      <point x="262.105" y="745.978"/>
      <point x="217.645" y="756.907"/>
      <point x="191.349" y="756.993" type="curve" smooth="yes"/>
      <point x="70.3243" y="758.621"/>
      <point x="33.7564" y="637.452"/>
      <point x="34" y="538" type="curve" smooth="yes"/>
      <point x="34.179" y="464.923"/>
      <point x="32.5106" y="390.363"/>
      <point x="33.051" y="315.649" type="curve" smooth="yes"/>
      <point x="33.8062" y="211.238"/>
      <point x="31.4886" y="104.432"/>
    </contour>
  </outline>
</glyph>
<glyph name="g" format="2">
  <advance width="550"/>
  <unicode hex="0067"/>
  <outline>
    <contour>
      <point x="211.983" y="-250" type="curve" smooth="yes"/>
      <point x="361.954" y="-250"/>
      <point x="463.013" y="-122.007"/>
      <point x="490" y="196.038" type="curve"/>
      <point x="457.99" y="156.756"/>
      <point x="436.938" y="78.753"/>
      <point x="393" y="77" type="curve"/>
      <point x="391.072" y="-40.0279"/>
      <point x="323" y="-170"/>
      <point x="211.983" y="-170" type="curve" smooth="yes"/>
      <point x="126.983" y="-170"/>
      <point x="67.0859" y="-95.4203"/>
      <point x="40.9349" y="-62.2715" type="curve"/>
      <point x="41" y="-186" type="line"/>
      <point x="73.6527" y="-217.817"/>
      <point x="124.891" y="-250"/>
    </contour>
    <contour>
      <point x="515" y="500" type="curve"/>
      <point x="395" y="500" type="line"/>
      <point x="427" y="143"/>
      <point x="423" y="77"/>
      <point x="393" y="77" type="curve" smooth="yes"/>
      <point x="365" y="77"/>
      <point x="366.391" y="193.893"/>
      <point x="366.391" y="284" type="curve" smooth="yes"/>
      <point x="366.391" y="411.288"/>
      <point x="315" y="500"/>
      <point x="209" y="500" type="curve" smooth="yes"/>
      <point x="93" y="500"/>
      <point x="35" y="372"/>
      <point x="35" y="250" type="curve" smooth="yes"/>
      <point x="35" y="170.998"/>
      <point x="45" y="0"/>
      <point x="205" y="0" type="curve" smooth="yes"/>
      <point x="311" y="0"/>
      <point x="348" y="100"/>
      <point x="359" y="151" type="curve"/>
      <point x="310.991" y="297.663" type="line"/>
      <point x="319" y="157.116"/>
      <point x="293" y="75.4224"/>
      <point x="223" y="77.1126" type="curve" smooth="yes"/>
      <point x="150.992" y="78.8513"/>
      <point x="115" y="206.004"/>
      <point x="115" y="290.015" type="curve" smooth="yes"/>
      <point x="115" y="348"/>
      <point x="131" y="433"/>
      <point x="197" y="433" type="curve" smooth="yes"/>
      <point x="227" y="433"/>
      <point x="282.976" y="401"/>
      <point x="291.004" y="294.943" type="curve" smooth="yes"/>
      <point x="303.578" y="128.837"/>
      <point x="296" y="0"/>
      <point x="391" y="0" type="curve"/>
      <point x="391" y="0" type="line"/>
      <point x="490" y="0"/>
      <point x="485.17" y="141.059"/>
    </contour>
  </outline>
</glyph>
<glyph name="h" format="2">
  <advance width="547"/>
  <unicode hex="0068"/>
  <outline>
    <contour>
      <point x="32" y="750" type="line"/>
      <point x="61" y="141"/>
      <point x="57" y="0"/>
      <point x="165" y="0" type="curve" smooth="yes"/>
      <point x="166" y="0" type="line" smooth="yes"/>
      <point x="271" y="0"/>
      <point x="270" y="128.95"/>
      <point x="256" y="295" type="curve" smooth="yes"/>
      <point x="247.076" y="400.842"/>
      <point x="293" y="439.005"/>
      <point x="339" y="438" type="curve" smooth="yes"/>
      <point x="414.997" y="436.34"/>
      <point x="450.459" y="361.248"/>
      <point x="431" y="241" type="curve" smooth="yes"/>
      <point x="392" y="0" type="line"/>
      <point x="512" y="0" type="line"/>
      <point x="512" y="80.3497"/>
      <point x="512" y="161.998"/>
      <point x="512" y="241" type="curve" smooth="yes"/>
      <point x="512" y="363"/>
      <point x="488" y="508"/>
      <point x="341" y="508" type="curve" smooth="yes"/>
      <point x="232" y="508"/>
      <point x="179" y="411.288"/>
      <point x="180.609" y="289.003" type="curve" smooth="yes"/>
      <point x="181.859" y="193.902"/>
      <point x="184" y="77"/>
      <point x="154" y="77" type="curve" smooth="yes"/>
      <point x="124" y="77"/>
      <point x="120" y="143"/>
      <point x="152" y="750" type="curve"/>
    </contour>
  </outline>
</glyph>
<glyph name="i" format="2">
  <advance width="205"/>
  <unicode hex="0069"/>
  <outline>
    <contour>
      <point x="162" y="500" type="line"/>
      <point x="136" y="409"/>
      <point x="113.489" y="346"/>
      <point x="113" y="284" type="curve" smooth="yes"/>
      <point x="112.337" y="200"/>
      <point x="135" y="124"/>
      <point x="163" y="0" type="curve"/>
      <point x="43" y="0" type="line"/>
      <point x="39" y="93.72"/>
      <point x="32.6199" y="190.109"/>
      <point x="33" y="284" type="curve" smooth="yes"/>
      <point x="33.293" y="356.374"/>
      <point x="36" y="428.72"/>
      <point x="41" y="500" type="curve"/>
    </contour>
    <contour>
      <point x="140.95" y="624" type="curve" smooth="yes"/>
      <point x="165.186" y="651.494"/>
      <point x="180.244" y="702.542"/>
      <point x="160.39" y="733.35" type="curve" smooth="yes"/>
      <point x="144.318" y="758.29"/>
      <point x="90.0996" y="755.607"/>
      <point x="70.48" y="733.35" type="curve" smooth="yes"/>
      <point x="46.5765" y="706.233"/>
      <point x="44.4182" y="654.386"/>
      <point x="64" y="624" type="curve" smooth="yes"/>
      <point x="77.7557" y="602.655"/>
      <point x="124.158" y="604.951"/>
    </contour>
  </outline>
</glyph>
<glyph name="j" format="2">
  <advance width="299"/>
  <unicode hex="006A"/>
  <outline>
    <contour>
      <point x="-35" y="-186" type="curve"/>
      <point x="-35" y="-64.7819" type="line"/>
      <point x="-9.27229" y="-98.4018"/>
      <point x="51.0552" y="-167.474"/>
      <point x="96.0728" y="-166.865" type="curve" smooth="yes"/>
      <point x="180.003" y="-165.728"/>
      <point x="132.843" y="-0.0404109"/>
      <point x="134" y="284.349" type="curve" smooth="yes"/>
      <point x="134.293" y="356.374"/>
      <point x="137" y="428.72"/>
      <point x="142" y="500" type="curve"/>
      <point x="263" y="500" type="line"/>
      <point x="237" y="409"/>
      <point x="214" y="346"/>
      <point x="214" y="284" type="curve" smooth="yes"/>
      <point x="214" y="44.3297"/>
      <point x="324" y="-249.974"/>
      <point x="124.143" y="-249.974" type="curve" smooth="yes"/>
      <point x="57.0511" y="-249.974"/>
      <point x="-2.3353" y="-217.816"/>
    </contour>
    <contour>
      <point x="234.95" y="624" type="curve" smooth="yes"/>
      <point x="259.186" y="651.494"/>
      <point x="274.244" y="702.542"/>
      <point x="254.39" y="733.35" type="curve" smooth="yes"/>
      <point x="238.318" y="758.29"/>
      <point x="184.1" y="755.607"/>
      <point x="164.48" y="733.35" type="curve" smooth="yes"/>
      <point x="140.576" y="706.233"/>
      <point x="138.418" y="654.386"/>
      <point x="158" y="624" type="curve" smooth="yes"/>
      <point x="171.756" y="602.655"/>
      <point x="218.158" y="604.951"/>
    </contour>
  </outline>
</glyph>
<glyph name="k" format="2">
  <advance width="522"/>
  <unicode hex="006B"/>
  <outline>
    <contour>
      <point x="32" y="750" type="line"/>
      <point x="61.0722" y="141"/>
      <point x="59" y="-7"/>
      <point x="165" y="-7" type="curve" smooth="yes"/>
      <point x="166" y="-7" type="line" smooth="yes"/>
      <point x="275.949" y="-7"/>
      <point x="277.759" y="141.296"/>
      <point x="260.42" y="297.341" type="curve"/>
      <point x="329.343" y="300.153"/>
      <point x="349" y="175"/>
      <point x="391.745" y="0" type="curve"/>
      <point x="501.745" y="0" type="line"/>
      <point x="387.64" y="295.717"/>
      <point x="361" y="356.878"/>
      <point x="261.481" y="353.224" type="curve"/>
      <point x="264.084" y="408.883"/>
      <point x="284" y="430"/>
      <point x="318.576" y="430" type="curve" smooth="yes"/>
      <point x="352.375" y="430"/>
      <point x="388.98" y="386.516"/>
      <point x="401.02" y="362.218" type="curve"/>
      <point x="480.87" y="428.221" type="line"/>
      <point x="455.15" y="473.8"/>
      <point x="408.073" y="507.014"/>
      <point x="341" y="508" type="curve" smooth="yes"/>
      <point x="232.012" y="509.603"/>
      <point x="180.788" y="411.301"/>
      <point x="180.608" y="289.003" type="curve" smooth="yes"/>
      <point x="180.608" y="193.893"/>
      <point x="182" y="77.0074"/>
      <point x="154" y="77.0074" type="curve" smooth="yes"/>
      <point x="124" y="77.0074"/>
      <point x="120" y="143"/>
      <point x="152" y="750" type="curve"/>
    </contour>
  </outline>
</glyph>
<glyph name="l" format="2">
  <advance width="206"/>
  <unicode hex="006C"/>
  <outline>
    <contour>
      <point x="171" y="750" type="line"/>
      <point x="142" y="659"/>
      <point x="112" y="586.432"/>
      <point x="112" y="514" type="curve" smooth="yes"/>
      <point x="112" y="337.335"/>
      <point x="143" y="176.22"/>
      <point x="170" y="0" type="curve"/>
      <point x="50" y="0" type="line"/>
      <point x="43.46" y="176.22"/>
      <point x="32" y="347.334"/>
      <point x="32" y="524" type="curve" smooth="yes"/>
      <point x="32" y="596.375"/>
      <point x="41" y="669"/>
      <point x="50" y="750" type="curve"/>
    </contour>
  </outline>
</glyph>
<glyph name="m" format="2">
  <advance width="777"/>
  <unicode hex="006D"/>
  <outline>
    <contour>
      <point x="35" y="500" type="line"/>
      <point x="64" y="141"/>
      <point x="59.6184" y="0"/>
      <point x="168" y="-0.5" type="curve"/>
      <point x="169" y="-0.4833" type="line"/>
      <point x="274.033" y="0"/>
      <point x="273" y="128.95"/>
      <point x="259" y="295" type="curve" smooth="yes"/>
      <point x="250.076" y="400.842"/>
      <point x="296.006" y="439.263"/>
      <point x="342" y="438" type="curve" smooth="yes"/>
      <point x="419.751" y="435.864"/>
      <point x="433.179" y="361.004"/>
      <point x="416" y="252.75" type="curve"/>
      <point x="414" y="241" type="line"/>
      <point x="375" y="0" type="line"/>
      <point x="495" y="0" type="line"/>
      <point x="495" y="241" type="line"/>
      <point x="494.674" y="264.84" type="line"/>
      <point x="495.078" y="302.207"/>
      <point x="493.344" y="338.911"/>
      <point x="506.973" y="374.483" type="curve" smooth="yes"/>
      <point x="524.04" y="419.026"/>
      <point x="556.7" y="438.86"/>
      <point x="588" y="438" type="curve" smooth="yes"/>
      <point x="665.751" y="435.864"/>
      <point x="680.367" y="360.812"/>
      <point x="661" y="241" type="curve" smooth="yes"/>
      <point x="622.015" y="-0.172607" type="line"/>
      <point x="742" y="0" type="line"/>
      <point x="742" y="241" type="line" smooth="yes"/>
      <point x="742" y="383"/>
      <point x="724" y="507.935"/>
      <point x="591.995" y="507.991" type="curve" smooth="yes"/>
      <point x="522.057" y="508.021"/>
      <point x="475.442" y="449.527"/>
      <point x="466.473" y="433.868" type="curve"/>
      <point x="458.009" y="451.419"/>
      <point x="420.595" y="508.033"/>
      <point x="344" y="508" type="curve" smooth="yes"/>
      <point x="235.475" y="507.953"/>
      <point x="182" y="411.288"/>
      <point x="183.6" y="289.5" type="curve" smooth="yes"/>
      <point x="184.849" y="194.409"/>
      <point x="187.17" y="76.792"/>
      <point x="157.063" y="77" type="curve" smooth="yes"/>
      <point x="127.064" y="77.2073"/>
      <point x="123" y="143"/>
      <point x="155" y="500" type="curve"/>
    </contour>
  </outline>
</glyph>
<glyph name="n" format="2">
  <advance width="550"/>
  <unicode hex="006E"/>
  <outline>
    <contour>
      <point x="35" y="500" type="line"/>
      <point x="64" y="141"/>
      <point x="60" y="0"/>
      <point x="168" y="0" type="curve" smooth="yes"/>
      <point x="169" y="0" type="line" smooth="yes"/>
      <point x="274" y="0"/>
      <point x="273" y="128.95"/>
      <point x="259" y="295" type="curve" smooth="yes"/>
      <point x="250.076" y="400.842"/>
      <point x="296" y="439.005"/>
      <point x="342" y="438" type="curve" smooth="yes"/>
      <point x="417.997" y="436.34"/>
      <point x="453.459" y="361.248"/>
      <point x="434" y="241" type="curve" smooth="yes"/>
      <point x="395" y="0" type="line"/>
      <point x="515" y="0" type="line"/>
      <point x="515" y="80.3497"/>
      <point x="515" y="161.998"/>
      <point x="515" y="241" type="curve" smooth="yes"/>
      <point x="515" y="363"/>
      <point x="491" y="508"/>
      <point x="344" y="508" type="curve" smooth="yes"/>
      <point x="235" y="508"/>
      <point x="182" y="411.288"/>
      <point x="183.609" y="289.003" type="curve" smooth="yes"/>
      <point x="184.859" y="193.902"/>
      <point x="187" y="77"/>
      <point x="157" y="77" type="curve" smooth="yes"/>
      <point x="127" y="77"/>
      <point x="123" y="143"/>
      <point x="155" y="500" type="curve"/>
    </contour>
  </outline>
</glyph>
<glyph name="o" format="2">
  <advance width="436"/>
  <unicode hex="006F"/>
  <outline>
    <contour>
      <point x="218" y="509" type="curve"/>
      <point x="218" y="509" type="line"/>
      <point x="378" y="509"/>
      <point x="399" y="336"/>
      <point x="399" y="251" type="curve" smooth="yes"/>
      <point x="399" y="174.599"/>
      <point x="378" y="-8"/>
      <point x="218" y="-8" type="curve"/>
      <point x="218" y="-8" type="line"/>
      <point x="58" y="-8"/>
      <point x="37" y="165"/>
      <point x="37" y="250" type="curve" smooth="yes"/>
      <point x="37" y="327"/>
      <point x="58" y="509"/>
    </contour>
    <contour>
      <point x="196" y="432" type="line"/>
      <point x="140" y="432"/>
      <point x="117" y="367.015"/>
      <point x="117" y="290.015" type="curve" smooth="yes"/>
      <point x="117" y="207"/>
      <point x="167" y="71.2737"/>
      <point x="240" y="69" type="curve"/>
      <point x="240" y="69" type="line"/>
      <point x="296" y="69"/>
      <point x="318.9" y="134.043"/>
      <point x="319" y="211" type="curve" smooth="yes"/>
      <point x="319.108" y="294"/>
      <point x="269" y="429.726"/>
      <point x="196" y="432" type="curve"/>
    </contour>
  </outline>
</glyph>
<glyph name="p" format="2">
  <advance width="559"/>
  <unicode hex="0070"/>
  <outline>
    <contour>
      <point x="32" y="500" type="line"/>
      <point x="61" y="-109"/>
      <point x="57" y="-250"/>
      <point x="168" y="-250.005" type="curve"/>
      <point x="169" y="-250.005" type="line"/>
      <point x="256" y="-250"/>
      <point x="294.495" y="-157.716"/>
      <point x="256" y="295" type="curve" smooth="yes"/>
      <point x="247" y="400.842"/>
      <point x="282.994" y="429.121"/>
      <point x="319" y="428" type="curve" smooth="yes"/>
      <point x="392" y="425.726"/>
      <point x="442" y="293"/>
      <point x="442" y="210" type="curve" smooth="yes"/>
      <point x="442" y="116"/>
      <point x="419" y="67"/>
      <point x="359" y="67" type="curve" smooth="yes"/>
      <point x="286" y="67"/>
      <point x="244" y="185"/>
      <point x="245" y="241" type="curve"/>
      <point x="188" y="161" type="line"/>
      <point x="199" y="110"/>
      <point x="244" y="-3"/>
      <point x="350" y="-3" type="curve" smooth="yes"/>
      <point x="503" y="-3"/>
      <point x="522" y="170.998"/>
      <point x="522" y="250" type="curve" smooth="yes"/>
      <point x="522" y="369"/>
      <point x="478" y="508.015"/>
      <point x="341" y="508" type="curve" smooth="yes"/>
      <point x="231.95" y="507.988"/>
      <point x="180.608" y="411.288"/>
      <point x="180.608" y="289.003" type="curve" smooth="yes"/>
      <point x="180.608" y="-38.1066"/>
      <point x="186" y="-173.002"/>
      <point x="156" y="-173" type="curve" smooth="yes"/>
      <point x="125.891" y="-172.998"/>
      <point x="131" y="-20.118"/>
      <point x="152" y="500" type="curve"/>
    </contour>
  </outline>
</glyph>
<glyph name="q" format="2">
  <advance width="552"/>
  <unicode hex="0071"/>
  <outline>
    <contour>
      <point x="517" y="500" type="curve"/>
      <point x="397" y="500" type="line"/>
      <point x="418" y="-20.118"/>
      <point x="423" y="-172.817"/>
      <point x="393" y="-172.909" type="curve" smooth="yes"/>
      <point x="363" y="-173.002"/>
      <point x="368.392" y="-38.1067"/>
      <point x="368.392" y="284" type="curve" smooth="yes"/>
      <point x="368.392" y="411.288"/>
      <point x="317" y="500"/>
      <point x="211" y="500" type="curve" smooth="yes"/>
      <point x="74.248" y="500"/>
      <point x="37" y="372"/>
      <point x="37" y="250" type="curve" smooth="yes"/>
      <point x="37" y="170.998"/>
      <point x="57" y="0"/>
      <point x="207" y="0" type="curve" smooth="yes"/>
      <point x="313" y="0"/>
      <point x="350" y="100"/>
      <point x="361" y="151" type="curve"/>
      <point x="312.991" y="297.663" type="line"/>
      <point x="321" y="157.116"/>
      <point x="295" y="75.4224"/>
      <point x="225" y="77.1126" type="curve" smooth="yes"/>
      <point x="152.992" y="78.8513"/>
      <point x="117" y="206.004"/>
      <point x="117" y="290.015" type="curve" smooth="yes"/>
      <point x="117" y="348"/>
      <point x="133" y="433"/>
      <point x="199" y="433" type="curve" smooth="yes"/>
      <point x="247" y="433"/>
      <point x="284.976" y="401"/>
      <point x="293.004" y="294.943" type="curve" smooth="yes"/>
      <point x="305.578" y="128.837"/>
      <point x="266" y="-250"/>
      <point x="391" y="-250" type="curve"/>
      <point x="391" y="-250" type="line"/>
      <point x="492" y="-250"/>
      <point x="488" y="-109"/>
    </contour>
  </outline>
</glyph>
<glyph name="r" format="2">
  <advance width="417"/>
  <unicode hex="0072"/>
  <outline>
    <contour>
      <point x="35" y="500" type="line"/>
      <point x="64" y="141"/>
      <point x="62" y="0"/>
      <point x="168" y="0" type="curve" smooth="yes"/>
      <point x="169" y="0" type="line" smooth="yes"/>
      <point x="274" y="0"/>
      <point x="278.79" y="128"/>
      <point x="264" y="295" type="curve" smooth="yes"/>
      <point x="255.054" y="396.005"/>
      <point x="287" y="430"/>
      <point x="321.576" y="430" type="curve" smooth="yes"/>
      <point x="340.911" y="430"/>
      <point x="361.062" y="416.3"/>
      <point x="377" y="399.325" type="curve"/>
      <point x="436.538" y="480.327" type="line"/>
      <point x="412" y="497.101"/>
      <point x="381.435" y="507.449"/>
      <point x="344" y="508" type="curve" smooth="yes"/>
      <point x="235.012" y="509.603"/>
      <point x="182" y="411.278"/>
      <point x="183.608" y="289.003" type="curve" smooth="yes"/>
      <point x="184.859" y="193.902"/>
      <point x="185" y="77"/>
      <point x="157" y="77" type="curve" smooth="yes"/>
      <point x="127" y="77"/>
      <point x="123" y="143"/>
      <point x="155" y="500" type="curve"/>
    </contour>
  </outline>
</glyph>
<glyph name="s" format="2">
  <advance width="409"/>
  <unicode hex="0073"/>
  <outline>
    <contour>
      <point x="35.7174" y="61.2385" type="line"/>
      <point x="68.3764" y="29.4125"/>
      <point x="119.457" y="-10.3293"/>
      <point x="206.457" y="-10.3293" type="curve" smooth="yes"/>
      <point x="326.457" y="-10.3293"/>
      <point x="372.456" y="63.7597"/>
      <point x="373.036" y="122.472" type="curve" smooth="yes"/>
      <point x="374.674" y="288.471"/>
      <point x="123.08" y="281.704"/>
      <point x="123.08" y="387.395" type="curve" smooth="yes"/>
      <point x="123.08" y="413.526"/>
      <point x="150.306" y="441.51"/>
      <point x="192.303" y="441.506" type="curve" smooth="yes"/>
      <point x="252.968" y="441.502"/>
      <point x="316.409" y="387.748"/>
      <point x="341.864" y="344.265" type="curve"/>
      <point x="341.811" y="457.931" type="line"/>
      <point x="318.934" y="481.669"/>
      <point x="262" y="518"/>
      <point x="196.437" y="518" type="curve" smooth="yes"/>
      <point x="90.2883" y="518"/>
      <point x="40.1821" y="444.129"/>
      <point x="39.6381" y="389" type="curve" smooth="yes"/>
      <point x="37.9984" y="222.837"/>
      <point x="283" y="225"/>
      <point x="283" y="120" type="curve" smooth="yes"/>
      <point x="283" y="92.0314"/>
      <point x="255.539" y="65.6883"/>
      <point x="218.256" y="65.6883" type="curve" smooth="yes"/>
      <point x="143.256" y="65.6883"/>
      <point x="71.4312" y="129.438"/>
      <point x="35.7028" y="173.057" type="curve"/>
    </contour>
  </outline>
</glyph>
<glyph name="t" format="2">
  <advance width="290"/>
  <unicode hex="0074"/>
  <outline>
    <contour>
      <point x="41.6084" y="291.003" type="line"/>
      <point x="40" y="413.278"/>
      <point x="93.0118" y="511.603"/>
      <point x="202" y="510" type="curve" smooth="yes"/>
      <point x="239.435" y="509.45"/>
      <point x="270.145" y="499.101"/>
      <point x="294.538" y="482.327" type="curve"/>
      <point x="235" y="401.325" type="line"/>
      <point x="219.03" y="417.93"/>
      <point x="198.911" y="432"/>
      <point x="179.576" y="432" type="curve" smooth="yes"/>
      <point x="145" y="432"/>
      <point x="113.054" y="398.005"/>
      <point x="122" y="297" type="curve"/>
    </contour>
    <contour>
      <point x="171" y="699" type="line"/>
      <point x="142" y="629"/>
      <point x="112" y="556"/>
      <point x="112" y="463" type="curve" smooth="yes"/>
      <point x="112" y="397"/>
      <point x="143" y="176.22"/>
      <point x="170" y="0" type="curve"/>
      <point x="50" y="0" type="line"/>
      <point x="43.46" y="176.22"/>
      <point x="32" y="347.334"/>
      <point x="32" y="473" type="curve" smooth="yes"/>
      <point x="32" y="545.375"/>
      <point x="41" y="618"/>
      <point x="50" y="699" type="curve"/>
    </contour>
  </outline>
</glyph>
<glyph name="u" format="2">
  <advance width="550"/>
  <unicode hex="0075"/>
  <outline>
    <contour>
      <point x="515" y="8" type="line"/>
      <point x="486" y="367"/>
      <point x="490" y="508"/>
      <point x="382" y="508" type="curve" smooth="yes"/>
      <point x="381" y="508" type="line" smooth="yes"/>
      <point x="276" y="508"/>
      <point x="277" y="379.05"/>
      <point x="291" y="213" type="curve" smooth="yes"/>
      <point x="299.924" y="107.158"/>
      <point x="254" y="68.995"/>
      <point x="208" y="70" type="curve" smooth="yes"/>
      <point x="132.003" y="71.6604"/>
      <point x="96.5407" y="146.752"/>
      <point x="116" y="267" type="curve" smooth="yes"/>
      <point x="155" y="508" type="line"/>
      <point x="35" y="508" type="line"/>
      <point x="35" y="427.65"/>
      <point x="35" y="346.002"/>
      <point x="35" y="267" type="curve" smooth="yes"/>
      <point x="35" y="145"/>
      <point x="59" y="0"/>
      <point x="206" y="0" type="curve" smooth="yes"/>
      <point x="315" y="0"/>
      <point x="368" y="96.7119"/>
      <point x="366.391" y="218.997" type="curve" smooth="yes"/>
      <point x="365.141" y="314.098"/>
      <point x="363" y="431"/>
      <point x="393" y="431" type="curve" smooth="yes"/>
      <point x="423" y="431"/>
      <point x="427" y="365"/>
      <point x="395" y="8" type="curve"/>
    </contour>
  </outline>
</glyph>
<glyph name="v" format="2">
  <advance width="532"/>
  <unicode hex="0076"/>
  <outline>
    <contour>
      <point x="20" y="216" type="curve"/>
      <point x="140" y="216" type="line"/>
      <point x="131" y="262.031"/>
      <point x="95.9798" y="430.008"/>
      <point x="126" y="430" type="curve" smooth="yes"/>
      <point x="147" y="429.994"/>
      <point x="159.921" y="372.913"/>
      <point x="187.635" y="263.024" type="curve" smooth="yes"/>
      <point x="231.836" y="87.7643"/>
      <point x="252.39" y="0"/>
      <point x="317" y="0" type="curve"/>
      <point x="316.61" y="0" type="line"/>
      <point x="382.845" y="0"/>
      <point x="399.389" y="87.7643"/>
      <point x="447.585" y="262.607" type="curve" smooth="yes"/>
      <point x="477.811" y="372.259"/>
      <point x="495" y="436.526"/>
      <point x="512" y="500" type="curve"/>
      <point x="391" y="500" type="line"/>
      <point x="378.721" y="420.269"/>
      <point x="370.228" y="344.157"/>
      <point x="358.22" y="269.815" type="curve" smooth="yes"/>
      <point x="337.977" y="144.486"/>
      <point x="336.631" y="80"/>
      <point x="319" y="80" type="curve" smooth="yes"/>
      <point x="299" y="80"/>
      <point x="294.052" y="166.936"/>
      <point x="274.399" y="289.137" type="curve" smooth="yes"/>
      <point x="243.949" y="478.476"/>
      <point x="191" y="510"/>
      <point x="142" y="510" type="curve" smooth="yes"/>
      <point x="141" y="510" type="line" smooth="yes"/>
      <point x="44" y="510"/>
      <point x="20" y="347.178"/>
    </contour>
  </outline>
</glyph>
<glyph name="w" format="2">
  <advance width="812"/>
  <unicode hex="0077"/>
  <outline>
    <contour>
      <point x="20" y="216" type="curve"/>
      <point x="140.425" y="216" type="line"/>
      <point x="130.915" y="262.801"/>
      <point x="96" y="430"/>
      <point x="126" y="430" type="curve" smooth="yes"/>
      <point x="147" y="430"/>
      <point x="161.678" y="372.939"/>
      <point x="188.328" y="263.024" type="curve" smooth="yes"/>
      <point x="230.916" y="87.3751"/>
      <point x="252.39" y="0"/>
      <point x="316.6" y="0" type="curve"/>
      <point x="316.61" y="0" type="line"/>
      <point x="382.755" y="0"/>
      <point x="406.985" y="87.7531"/>
      <point x="445.585" y="292.607" type="curve"/>
      <point x="456.068" y="331.047" type="line"/>
      <point x="465.635" y="293.024" type="line"/>
      <point x="511.397" y="88.001"/>
      <point x="531.942" y="0"/>
      <point x="596.796" y="0" type="curve"/>
      <point x="596.806" y="0" type="line"/>
      <point x="662.845" y="0"/>
      <point x="677.109" y="89.4526"/>
      <point x="727.585" y="262.607" type="curve" smooth="yes"/>
      <point x="753.652" y="352.029"/>
      <point x="775.464" y="437.169"/>
      <point x="792" y="500" type="curve"/>
      <point x="671" y="500" type="line"/>
      <point x="658.721" y="420.269"/>
      <point x="650.447" y="346.114"/>
      <point x="638.22" y="269.815" type="curve" smooth="yes"/>
      <point x="618.02" y="143.76"/>
      <point x="617.086" y="79.9788"/>
      <point x="599.039" y="80" type="curve" smooth="yes"/>
      <point x="578.679" y="80.0239"/>
      <point x="570.052" y="166.936"/>
      <point x="550.399" y="289.137" type="curve"/>
      <point x="512.018" y="500" type="line"/>
      <point x="391" y="500" type="line"/>
      <point x="360.22" y="269.815" type="line"/>
      <point x="340.232" y="146.064"/>
      <point x="336.631" y="80"/>
      <point x="319" y="80" type="curve" smooth="yes"/>
      <point x="299.059" y="80"/>
      <point x="294.052" y="166.936"/>
      <point x="274.399" y="289.137" type="curve" smooth="yes"/>
      <point x="243.893" y="478.823"/>
      <point x="190.607" y="509.888"/>
      <point x="141" y="510" type="curve"/>
      <point x="141" y="510" type="line"/>
      <point x="44.3445" y="510.308"/>
      <point x="20" y="347.178"/>
    </contour>
  </outline>
</glyph>
<glyph name="x" format="2">
  <advance width="563"/>
  <unicode hex="0078"/>
  <outline>
    <contour>
      <point x="20.358" y="285.425" type="curve"/>
      <point x="130.358" y="285.425" type="line"/>
      <point x="130.358" y="294.464"/>
      <point x="105.358" y="431.466"/>
      <point x="136.358" y="431.417" type="curve" smooth="yes"/>
      <point x="160.635" y="431.378"/>
      <point x="189.853" y="356.145"/>
      <point x="233.718" y="257.433" type="curve"/>
      <point x="61" y="1" type="line"/>
      <point x="186" y="1" type="line"/>
      <point x="276.358" y="181.457" type="line"/>
      <point x="355.901" y="5.82536"/>
      <point x="380.395" y="-4.99579"/>
      <point x="421.395" y="-5" type="curve"/>
      <point x="421.395" y="-5" type="line"/>
      <point x="514.39" y="-4.9958"/>
      <point x="542.797" y="201.884"/>
      <point x="542.439" y="215.271" type="curve"/>
      <point x="432.439" y="215.271" type="line"/>
      <point x="432.439" y="206.232"/>
      <point x="458.048" y="69.6218"/>
      <point x="427.048" y="69.583" type="curve" smooth="yes"/>
      <point x="402.772" y="69.5526"/>
      <point x="373.553" y="144.855"/>
      <point x="329.688" y="243.567" type="curve"/>
      <point x="501.797" y="499.696" type="line"/>
      <point x="376.797" y="499.696" type="line"/>
      <point x="285.699" y="321.847" type="line"/>
      <point x="206.271" y="497.044"/>
      <point x="183.011" y="506"/>
      <point x="142.011" y="506" type="curve"/>
      <point x="142.011" y="506" type="line"/>
      <point x="49.3635" y="506"/>
      <point x="20.3581" y="298.603"/>
    </contour>
  </outline>
</glyph>
<glyph name="y" format="2">
  <advance width="482"/>
  <unicode hex="0079"/>
  <outline>
    <contour>
      <point x="4" y="216" type="curve"/>
      <point x="114.425" y="216.189" type="line"/>
      <point x="114.425" y="270.307"/>
      <point x="84.9798" y="430.002"/>
      <point x="115" y="430" type="curve" smooth="yes"/>
      <point x="135.881" y="429.998"/>
      <point x="146.386" y="373.845"/>
      <point x="170.328" y="263.024" type="curve" smooth="yes"/>
      <point x="207.994" y="88.6845"/>
      <point x="210.39" y="-9.3099"/>
      <point x="305" y="7.11654" type="curve"/>
      <point x="282.685" y="-66.4553"/>
      <point x="253" y="-170"/>
      <point x="161.983" y="-170" type="curve" smooth="yes"/>
      <point x="86.9832" y="-170"/>
      <point x="27.0859" y="-95.4203"/>
      <point x="1.35817" y="-61.8005" type="curve"/>
      <point x="0.840073" y="-186" type="line"/>
      <point x="33.4928" y="-217.817"/>
      <point x="84.8245" y="-250"/>
      <point x="151.983" y="-250" type="curve" smooth="yes"/>
      <point x="282.715" y="-250"/>
      <point x="341.22" y="-139.626"/>
      <point x="374.292" y="0" type="curve"/>
      <point x="482" y="500" type="line"/>
      <point x="373" y="500" type="line"/>
      <point x="344.22" y="269.815" type="line"/>
      <point x="326.232" y="146.064"/>
      <point x="319.322" y="80.2263"/>
      <point x="301" y="80" type="curve" smooth="yes"/>
      <point x="280.666" y="79.7489"/>
      <point x="276.559" y="163.786"/>
      <point x="256.399" y="289.137" type="curve" smooth="yes"/>
      <point x="225.893" y="478.823"/>
      <point x="172.783" y="509.094"/>
      <point x="123" y="510" type="curve"/>
      <point x="123" y="510" type="line"/>
      <point x="26.3445" y="509.888"/>
      <point x="3.61518" y="346.467"/>
    </contour>
  </outline>
</glyph>
<glyph name="z" format="2">
  <advance width="363"/>
  <unicode hex="007A"/>
  <outline>
    <contour>
      <point x="240" y="500.021" type="line" smooth="yes"/>
      <point x="337" y="500.032"/>
      <point x="350.973" y="420.142"/>
      <point x="221" y="257.625" type="curve" smooth="yes"/>
      <point x="140.559" y="157.043"/>
      <point x="53" y="58"/>
      <point x="136" y="58" type="curve" smooth="yes"/>
      <point x="166" y="58"/>
      <point x="259.03" y="87"/>
      <point x="328" y="120" type="curve"/>
      <point x="328" y="0" type="line"/>
      <point x="119.037" y="0" type="line" smooth="yes"/>
      <point x="-31" y="0"/>
      <point x="51.432" y="144.288"/>
      <point x="134" y="256.021" type="curve" smooth="yes"/>
      <point x="190" y="331.801"/>
      <point x="245" y="430.021"/>
      <point x="190" y="430.021" type="curve" smooth="yes"/>
      <point x="160" y="430.021"/>
      <point x="120.07" y="413.007"/>
      <point x="61" y="380" type="curve"/>
      <point x="61" y="500" type="line"/>
    </contour>
  </outline>
</glyph>
<glyph name="braceleft" format="2">
  <advance width="331"/>
  <unicode hex="007B"/>
  <outline>
    <contour>
      <point x="110" y="770" type="curve"/>
      <point x="110" y="480.309" type="line"/>
      <point x="10" y="409.642" type="line"/>
      <point x="10" y="322.729" type="line"/>
      <point x="110" y="253.213" type="line"/>
      <point x="110" y="-37" type="line"/>
      <point x="109.76" y="-67.2006"/>
      <point x="130.389" y="-86.591"/>
      <point x="159.784" y="-87" type="curve"/>
      <point x="290" y="-87" type="line"/>
      <point x="290.021" y="23" type="line"/>
      <point x="213.334" y="0.150009" type="line"/>
      <point x="189.915" y="-7" type="line"/>
      <point x="190" y="295.385" type="line"/>
      <point x="89" y="365.881" type="line"/>
      <point x="89" y="368.421" type="line"/>
      <point x="190" y="436.872" type="line"/>
      <point x="190" y="740" type="line"/>
      <point x="223.633" y="729.91" type="line"/>
      <point x="290" y="710" type="line"/>
      <point x="290" y="820" type="line"/>
      <point x="160.377" y="820" type="line"/>
      <point x="130" y="820"/>
      <point x="110.206" y="800.471"/>
    </contour>
  </outline>
</glyph>
<glyph name="braceright" format="2">
  <advance width="331"/>
  <unicode hex="007D"/>
  <outline>
    <contour>
      <point x="220.021" y="770" type="line"/>
      <point x="219.814" y="800.471"/>
      <point x="200.021" y="820"/>
      <point x="169.644" y="820" type="curve"/>
      <point x="40.0207" y="820" type="line"/>
      <point x="40.0207" y="710" type="line"/>
      <point x="106.387" y="729.91" type="line"/>
      <point x="140.021" y="740" type="line"/>
      <point x="140.021" y="436.872" type="line"/>
      <point x="241.021" y="368.421" type="line"/>
      <point x="241.021" y="365.881" type="line"/>
      <point x="140.021" y="295.385" type="line"/>
      <point x="140.106" y="-7" type="line"/>
      <point x="116.687" y="0.150009" type="line"/>
      <point x="40" y="23" type="line"/>
      <point x="40.0207" y="-87" type="line"/>
      <point x="170.237" y="-87" type="line"/>
      <point x="199.631" y="-86.591"/>
      <point x="220.261" y="-67.2006"/>
      <point x="220.021" y="-37" type="curve"/>
      <point x="220.021" y="253.213" type="line"/>
      <point x="320.021" y="322.729" type="line"/>
      <point x="320.021" y="409.642" type="line"/>
      <point x="220.021" y="480.309" type="line"/>
    </contour>
  </outline>
</glyph>
<glyph name="asciitilde" format="2">
  <advance width="310"/>
  <unicode hex="007E"/>
  <outline>
    <contour>
      <point x="50" y="201" type="line"/>
      <point x="68.15" y="214.563"/>
      <point x="86.3774" y="231.368"/>
      <point x="109" y="230.101" type="curve" smooth="yes"/>
      <point x="136.984" y="228.534"/>
      <point x="162.017" y="207.59"/>
      <point x="190" y="206" type="curve" smooth="yes"/>
      <point x="212.602" y="204.716"/>
      <point x="231.85" y="221.47"/>
      <point x="250" y="235" type="curve"/>
      <point x="250" y="308.318" type="line"/>
      <point x="231.85" y="294.788"/>
      <point x="212.603" y="278.054"/>
      <point x="190" y="279.318" type="curve" smooth="yes"/>
      <point x="161.986" y="280.885"/>
      <point x="136.835" y="301.749"/>
      <point x="108.821" y="303.318" type="curve" smooth="yes"/>
      <point x="86.2655" y="304.581"/>
      <point x="68.0909" y="287.848"/>
      <point x="50" y="274.318" type="curve"/>
    </contour>
  </outline>
</glyph>
<glyph name="exclamdown" format="2">
  <advance width="315"/>
  <unicode hex="00A1"/>
  <outline>
    <contour>
      <point x="140.332" y="481.332" type="curve" smooth="yes"/>
      <point x="121.665" y="462.665"/>
      <point x="121.665" y="420"/>
      <point x="140.332" y="401.332" type="curve" smooth="yes"/>
      <point x="159" y="382.665"/>
      <point x="201.665" y="382.665"/>
      <point x="220.332" y="401.332" type="curve" smooth="yes"/>
      <point x="239" y="420"/>
      <point x="239" y="462.665"/>
      <point x="220.332" y="481.332" type="curve" smooth="yes"/>
      <point x="201.665" y="500"/>
      <point x="159" y="500"/>
    </contour>
    <contour>
      <point x="220.332" y="301.332" type="line"/>
      <point x="220.332" y="-218.668" type="line"/>
      <point x="100.332" y="-218.668" type="line"/>
      <point x="140.332" y="301.332" type="line"/>
    </contour>
  </outline>
</glyph>
<glyph name="dieresis" format="2">
  <advance width="150"/>
  <unicode hex="00A8"/>
  <outline>
    <contour>
      <point x="110" y="670" type="curve" smooth="yes"/>
      <point x="128.668" y="688.668"/>
      <point x="128.668" y="731.332"/>
      <point x="110" y="750" type="curve" smooth="yes"/>
      <point x="91.3324" y="768.668"/>
      <point x="48.6676" y="768.668"/>
      <point x="30" y="750" type="curve" smooth="yes"/>
      <point x="11.3324" y="731.332"/>
      <point x="11.3324" y="688.668"/>
      <point x="30" y="670" type="curve" smooth="yes"/>
      <point x="48.6676" y="651.332"/>
      <point x="91.3324" y="651.332"/>
    </contour>
    <contour>
      <point x="250" y="670" type="curve" smooth="yes"/>
      <point x="268.668" y="688.668"/>
      <point x="268.668" y="731.332"/>
      <point x="250" y="750" type="curve" smooth="yes"/>
      <point x="231.332" y="768.668"/>
      <point x="188.668" y="768.668"/>
      <point x="170" y="750" type="curve" smooth="yes"/>
      <point x="151.332" y="731.332"/>
      <point x="151.332" y="688.668"/>
      <point x="170" y="670" type="curve" smooth="yes"/>
      <point x="188.668" y="651.332"/>
      <point x="231.332" y="651.332"/>
    </contour>
  </outline>
</glyph>
<glyph name="degree" format="2">
  <advance width="311"/>
  <unicode hex="00B0"/>
  <outline>
    <contour>
      <point x="20" y="624.629" type="curve" smooth="yes"/>
      <point x="20" y="556.308"/>
      <point x="75.7234" y="500"/>
      <point x="145.001" y="500" type="curve" smooth="yes"/>
      <point x="214.279" y="500"/>
      <point x="270.002" y="556.308"/>
      <point x="270.002" y="624.629" type="curve" smooth="yes"/>
      <point x="270.002" y="693.701"/>
      <point x="214.279" y="750.009"/>
      <point x="145.001" y="750.009" type="curve" smooth="yes"/>
      <point x="75.7234" y="750.009"/>
      <point x="20" y="693.701"/>
    </contour>
    <contour>
      <point x="100.026" y="624.893" type="curve" smooth="yes"/>
      <point x="100.026" y="649.759"/>
      <point x="120.087" y="670.03"/>
      <point x="145.026" y="670.03" type="curve" smooth="yes"/>
      <point x="169.966" y="670.03"/>
      <point x="190.026" y="649.759"/>
      <point x="190.026" y="624.893" type="curve" smooth="yes"/>
      <point x="190.026" y="600.297"/>
      <point x="169.966" y="580.026"/>
      <point x="145.026" y="580.026" type="curve" smooth="yes"/>
      <point x="120.086" y="580.026"/>
      <point x="100.026" y="600.297"/>
    </contour>
  </outline>
</glyph>
<glyph name="acute" format="2">
  <advance width="207"/>
  <unicode hex="00B4"/>
  <outline>
    <contour>
      <point x="161" y="630" type="curve" smooth="yes"/>
      <point x="170.483" y="647.692"/>
      <point x="173.7" y="680.2"/>
      <point x="177" y="700" type="curve"/>
      <point x="67" y="700" type="line"/>
      <point x="67" y="683.5"/>
      <point x="65.6831" y="655.821"/>
      <point x="61" y="640" type="curve" smooth="yes"/>
      <point x="53.167" y="613.537"/>
      <point x="42.21" y="589.75"/>
      <point x="30" y="565" type="curve"/>
      <point x="110" y="565" type="line"/>
      <point x="128.81" y="586.45"/>
      <point x="147.522" y="604.855"/>
    </contour>
  </outline>
</glyph>
<glyph name="cedilla" format="2">
  <advance width="187"/>
  <unicode hex="00B8"/>
  <outline>
    <contour>
      <point x="151" y="-67" type="curve" smooth="yes"/>
      <point x="160.483" y="-49.3081"/>
      <point x="163.7" y="-16.8"/>
      <point x="167" y="3" type="curve"/>
      <point x="57" y="3" type="line"/>
      <point x="57" y="-13.5"/>
      <point x="55.6831" y="-41.1786"/>
      <point x="51" y="-57" type="curve" smooth="yes"/>
      <point x="43.167" y="-83.463"/>
      <point x="32.21" y="-107.25"/>
      <point x="20" y="-132" type="curve"/>
      <point x="100" y="-132" type="line"/>
      <point x="118.81" y="-110.55"/>
      <point x="137.522" y="-92.145"/>
    </contour>
  </outline>
</glyph>
<glyph name="questiondown" format="2">
  <advance width="401"/>
  <unicode hex="00BF"/>
  <outline>
    <contour>
      <point x="241.033" y="481.332" type="curve" smooth="yes"/>
      <point x="222.365" y="462.665"/>
      <point x="222.365" y="420"/>
      <point x="241.033" y="401.332" type="curve" smooth="yes"/>
      <point x="259.701" y="382.665"/>
      <point x="302.365" y="382.665"/>
      <point x="321.033" y="401.332" type="curve" smooth="yes"/>
      <point x="339.701" y="420"/>
      <point x="339.701" y="462.665"/>
      <point x="321.033" y="481.332" type="curve" smooth="yes"/>
      <point x="302.365" y="500"/>
      <point x="259.701" y="500"/>
    </contour>
    <contour>
      <point x="320.033" y="301.332" type="line"/>
      <point x="320.033" y="143.733" type="line"/>
      <point x="252.233" y="79.6712"/>
      <point x="161.585" y="15.5865"/>
      <point x="160.94" y="-81.6676" type="curve" smooth="yes"/>
      <point x="160.357" y="-169.669"/>
      <point x="273.65" y="-148.608"/>
      <point x="340.033" y="-98.6082" type="curve"/>
      <point x="340.033" y="-218.668" type="line"/>
      <point x="150.075" y="-218.668"/>
      <point x="80.0849" y="-203.668"/>
      <point x="80.0372" y="-82.6676" type="curve" smooth="yes"/>
      <point x="80" y="11.5879"/>
      <point x="139.613" y="78.4732"/>
      <point x="238.666" y="171.994" type="curve"/>
      <point x="238.666" y="301.79" type="line"/>
    </contour>
  </outline>
</glyph>
<glyph name="AE" format="2">
  <advance width="807"/>
  <unicode hex="00C6"/>
  <outline>
    <contour>
      <point x="258" y="700" type="line" smooth="yes"/>
      <point x="11" y="700"/>
      <point x="31" y="331"/>
      <point x="31" y="0" type="curve"/>
      <point x="151" y="0" type="line"/>
      <point x="134" y="186" type="line"/>
      <point x="395" y="186" type="line"/>
      <point x="395" y="0" type="line"/>
      <point x="480" y="0" type="line"/>
      <point x="480.169" y="700" type="line"/>
      <point x="259" y="700" type="line"/>
    </contour>
    <contour>
      <point x="127" y="266" type="line"/>
      <point x="119" y="340"/>
      <point x="112" y="620"/>
      <point x="259" y="620" type="curve"/>
      <point x="395" y="620.05" type="line"/>
      <point x="395" y="266" type="line"/>
    </contour>
    <contour>
      <point x="395" y="700" type="line"/>
      <point x="395" y="622" type="line"/>
      <point x="395" y="78" type="line"/>
      <point x="395" y="0" type="line"/>
      <point x="775" y="0" type="line"/>
      <point x="775" y="120" type="line"/>
      <point x="533.057" y="76.0745" type="line" smooth="yes"/>
      <point x="491.732" y="68.5719"/>
      <point x="479.73" y="79.7203"/>
      <point x="479.756" y="126.296" type="curve" smooth="yes"/>
      <point x="479.829" y="253.258" type="line"/>
      <point x="479.829" y="299.588"/>
      <point x="495.401" y="312.601"/>
      <point x="537.057" y="303.925" type="curve"/>
      <point x="705" y="272" type="line"/>
      <point x="705" y="382" type="line"/>
      <point x="480.845" y="382" type="line"/>
      <point x="480.218" y="572.166" type="line"/>
      <point x="480.218" y="619.047"/>
      <point x="491.758" y="630.569"/>
      <point x="533.057" y="622.925" type="curve" smooth="yes"/>
      <point x="765" y="580" type="line"/>
      <point x="765" y="700" type="line"/>
    </contour>
  </outline>
</glyph>
<glyph name="Eth" format="2">
  <advance width="577"/>
  <unicode hex="00D0"/>
  <outline>
    <component base="D" xOffset="40"/>
    <contour>
      <point x="40.0019" y="326" type="line"/>
      <point x="40.0019" y="406" type="line"/>
      <point x="288.282" y="406" type="line"/>
      <point x="288.282" y="286" type="line"/>
    </contour>
  </outline>
</glyph>
<glyph name="multiply" format="2">
  <advance width="529"/>
  <unicode hex="00D7"/>
  <outline>
    <contour>
      <point x="428.195" y="109.695" type="line"/>
      <point x="371.627" y="53.1267" type="line"/>
      <point x="88.8308" y="335.923" type="line"/>
      <point x="173.684" y="420.775" type="line"/>
    </contour>
    <contour>
      <point x="136.635" y="72.865" type="line"/>
      <point x="80.0665" y="129.434" type="line"/>
      <point x="363.575" y="412.942" type="line"/>
      <point x="448.428" y="328.09" type="line"/>
    </contour>
  </outline>
</glyph>
<glyph name="Oslash" format="2">
  <advance width="586"/>
  <unicode hex="00D8"/>
  <outline>
    <component base="O"/>
    <contour>
      <point x="153.826" y="-50" type="line"/>
      <point x="321.142" y="750" type="line"/>
      <point x="442.142" y="750" type="line"/>
      <point x="234.826" y="-50" type="line"/>
    </contour>
  </outline>
</glyph>
<glyph name="Thorn" format="2">
  <advance width="527"/>
  <unicode hex="00DE"/>
  <outline>
    <contour>
      <point x="134.961" y="238.356" type="line"/>
      <point x="234" y="238.356" type="line" smooth="yes"/>
      <point x="331" y="238.356"/>
      <point x="393.836" y="295"/>
      <point x="393.979" y="365" type="curve" smooth="yes"/>
      <point x="394.143" y="445"/>
      <point x="326" y="474.941"/>
      <point x="258" y="474.927" type="curve" smooth="yes"/>
      <point x="148" y="474.905" type="line"/>
    </contour>
    <contour>
      <point x="282" y="159" type="curve" smooth="yes"/>
      <point x="130.119" y="159.165" type="line"/>
      <point x="121" y="0" type="line"/>
      <point x="41" y="0" type="line"/>
      <point x="40.8838" y="700" type="line"/>
      <point x="161.314" y="700" type="line"/>
      <point x="152.809" y="554.923" type="line"/>
      <point x="235" y="554.867" type="line" smooth="yes"/>
      <point x="378" y="554.771"/>
      <point x="482" y="508"/>
      <point x="482" y="345" type="curve" smooth="yes"/>
      <point x="482" y="260"/>
      <point x="440" y="158.828"/>
    </contour>
  </outline>
</glyph>
<glyph name="ae" format="2">
  <advance width="805"/>
  <unicode hex="00E6"/>
  <outline>
    <contour>
      <point x="505" y="279" type="curve"/>
      <point x="416" y="279" type="line"/>
      <point x="409" y="153"/>
      <point x="415" y="77"/>
      <point x="385" y="77" type="curve" smooth="yes"/>
      <point x="357" y="77"/>
      <point x="358.391" y="193.893"/>
      <point x="358.391" y="284" type="curve" smooth="yes"/>
      <point x="358.391" y="411.288"/>
      <point x="317" y="500"/>
      <point x="211" y="500" type="curve" smooth="yes"/>
      <point x="95" y="500"/>
      <point x="37" y="372"/>
      <point x="37" y="250" type="curve" smooth="yes"/>
      <point x="37" y="170.998"/>
      <point x="57" y="0"/>
      <point x="207" y="0" type="curve" smooth="yes"/>
      <point x="313" y="0"/>
      <point x="340" y="100"/>
      <point x="351" y="151" type="curve"/>
      <point x="302.991" y="297.663" type="line"/>
      <point x="311" y="157.116"/>
      <point x="295" y="75.4224"/>
      <point x="225" y="77.1126" type="curve" smooth="yes"/>
      <point x="152.992" y="78.8513"/>
      <point x="117" y="206.004"/>
      <point x="117" y="290.015" type="curve" smooth="yes"/>
      <point x="117" y="348"/>
      <point x="133" y="433"/>
      <point x="199" y="433" type="curve" smooth="yes"/>
      <point x="229" y="433"/>
      <point x="274.976" y="401"/>
      <point x="283.004" y="294.943" type="curve" smooth="yes"/>
      <point x="295.578" y="128.837"/>
      <point x="288" y="0"/>
      <point x="383" y="0" type="curve"/>
      <point x="383" y="0" type="line"/>
      <point x="482" y="0"/>
      <point x="477.17" y="141.059"/>
    </contour>
    <contour>
      <point x="751.545" y="73" type="curve"/>
      <point x="701" y="118" type="line"/>
      <point x="680.542" y="94.8507"/>
      <point x="654.737" y="71.8558"/>
      <point x="618" y="73" type="curve" smooth="yes"/>
      <point x="545" y="75.2737"/>
      <point x="495" y="218"/>
      <point x="495" y="301.015" type="curve" smooth="yes"/>
      <point x="495" y="371.796"/>
      <point x="518.422" y="433.15"/>
      <point x="574" y="433" type="curve"/>
      <point x="573" y="433" type="line"/>
      <point x="641" y="430.726"/>
      <point x="675" y="338"/>
      <point x="681" y="301.257" type="curve"/>
      <point x="428" y="301" type="line"/>
      <point x="428" y="231" type="line"/>
      <point x="773" y="231" type="line"/>
      <point x="773" y="281" type="line" smooth="yes"/>
      <point x="773" y="327"/>
      <point x="752" y="510.04"/>
      <point x="591" y="510.04" type="curve" smooth="yes"/>
      <point x="590" y="510.04" type="line" smooth="yes"/>
      <point x="433.729" y="510.04"/>
      <point x="415" y="338"/>
      <point x="415" y="261" type="curve" smooth="yes"/>
      <point x="415" y="175.999"/>
      <point x="438.815" y="-4"/>
      <point x="596.424" y="-4" type="curve" smooth="yes"/>
      <point x="663" y="-4"/>
      <point x="712.352" y="25.2"/>
    </contour>
  </outline>
</glyph>
<glyph name="divide" format="2">
  <advance width="350"/>
  <unicode hex="00F7"/>
  <outline>
    <component base="minus"/>
    <contour>
      <point x="210" y="80" type="curve" smooth="yes"/>
      <point x="194.789" y="62.6155"/>
      <point x="155.211" y="62.6155"/>
      <point x="140" y="80" type="curve" smooth="yes"/>
      <point x="122.615" y="99.868"/>
      <point x="122.615" y="140.132"/>
      <point x="140" y="160" type="curve" smooth="yes"/>
      <point x="155.211" y="177.385"/>
      <point x="194.789" y="177.385"/>
      <point x="210" y="160" type="curve" smooth="yes"/>
      <point x="227.385" y="140.132"/>
      <point x="227.385" y="99.868"/>
    </contour>
    <contour>
      <point x="210" y="352" type="curve" smooth="yes"/>
      <point x="194.789" y="334.615"/>
      <point x="155.211" y="334.615"/>
      <point x="140" y="352" type="curve" smooth="yes"/>
      <point x="122.615" y="371.868"/>
      <point x="122.615" y="412.132"/>
      <point x="140" y="432" type="curve" smooth="yes"/>
      <point x="155.211" y="449.385"/>
      <point x="194.789" y="449.385"/>
      <point x="210" y="432" type="curve" smooth="yes"/>
      <point x="227.385" y="412.132"/>
      <point x="227.385" y="371.868"/>
    </contour>
  </outline>
</glyph>
<glyph name="oslash" format="2">
  <advance width="436"/>
  <unicode hex="00F8"/>
  <outline>
    <component base="o"/>
    <contour>
      <point x="96.8261" y="-110" type="line"/>
      <point x="236.174" y="590" type="line"/>
      <point x="357.174" y="590" type="line"/>
      <point x="177.826" y="-110" type="line"/>
    </contour>
  </outline>
</glyph>
<glyph name="thorn" format="2">
  <advance width="572"/>
  <unicode hex="00FE"/>
  <outline>
    <contour>
      <point x="32.5069" y="750" type="line"/>
      <point x="61.5069" y="-109"/>
      <point x="70" y="-250"/>
      <point x="181" y="-250.005" type="curve"/>
      <point x="182" y="-250.005" type="line"/>
      <point x="269" y="-250"/>
      <point x="307.495" y="-157.716"/>
      <point x="269" y="295" type="curve" smooth="yes"/>
      <point x="260" y="400.842"/>
      <point x="295.994" y="429.121"/>
      <point x="332" y="428" type="curve" smooth="yes"/>
      <point x="405" y="425.726"/>
      <point x="455" y="293"/>
      <point x="455" y="210" type="curve" smooth="yes"/>
      <point x="455" y="116"/>
      <point x="432" y="67"/>
      <point x="372" y="67" type="curve" smooth="yes"/>
      <point x="299" y="67"/>
      <point x="257" y="185"/>
      <point x="258" y="241" type="curve"/>
      <point x="201" y="161" type="line"/>
      <point x="212" y="110"/>
      <point x="257" y="-3"/>
      <point x="363" y="-3" type="curve" smooth="yes"/>
      <point x="516" y="-3"/>
      <point x="535" y="170.998"/>
      <point x="535" y="250" type="curve" smooth="yes"/>
      <point x="535" y="369"/>
      <point x="491" y="508.015"/>
      <point x="354" y="508" type="curve" smooth="yes"/>
      <point x="244.95" y="507.988"/>
      <point x="193.608" y="411.288"/>
      <point x="193.608" y="289.003" type="curve" smooth="yes"/>
      <point x="193.608" y="-38.1066"/>
      <point x="204" y="-173.002"/>
      <point x="174" y="-173" type="curve" smooth="yes"/>
      <point x="143.891" y="-172.998"/>
      <point x="131.507" y="-20.118"/>
      <point x="152.507" y="750" type="curve"/>
    </contour>
  </outline>
</glyph>
<glyph name="aogonek" format="2">
  <advance width="542"/>
  <unicode hex="0105"/>
  <outline>
    <component base="a"/>
    <contour>
      <point x="345.012" y="10.8616" type="line"/>
      <point x="325.784" y="-44.6441" type="line" smooth="yes"/>
      <point x="313.102" y="-81.257"/>
      <point x="326.086" y="-122.363"/>
      <point x="368" y="-115" type="curve" smooth="yes"/>
      <point x="442" y="-102" type="line"/>
      <point x="442" y="-22" type="line"/>
      <point x="389.308" y="-49.3071" type="line" smooth="yes"/>
      <point x="375.804" y="-56.3055"/>
      <point x="370.991" y="-46.7366"/>
      <point x="385.361" y="-31.1929" type="curve" smooth="yes"/>
      <point x="427.012" y="13.8616" type="line"/>
    </contour>
  </outline>
</glyph>
<glyph name="dotlessi" format="2">
  <advance width="198"/>
  <unicode hex="0131"/>
  <outline>
    <contour>
      <point x="162" y="500" type="line"/>
      <point x="136" y="409"/>
      <point x="113.489" y="346"/>
      <point x="113" y="284" type="curve" smooth="yes"/>
      <point x="112.337" y="200"/>
      <point x="135" y="124"/>
      <point x="163" y="0" type="curve"/>
      <point x="43" y="0" type="line"/>
      <point x="39" y="93.72"/>
      <point x="32.6199" y="190.109"/>
      <point x="33" y="284" type="curve" smooth="yes"/>
      <point x="33.293" y="356.374"/>
      <point x="36" y="428.72"/>
      <point x="41" y="500" type="curve"/>
    </contour>
  </outline>
</glyph>
<glyph name="jcircumflex" format="2">
  <advance width="298"/>
  <unicode hex="0135"/>
  <outline>
    <component base="circumflex" xOffset="83.6705" yOffset="-50"/>
    <contour>
      <point x="-35" y="-186" type="curve"/>
      <point x="-35" y="-64.7819" type="line"/>
      <point x="-9.27229" y="-98.4018"/>
      <point x="51.0552" y="-167.474"/>
      <point x="96.0728" y="-166.865" type="curve" smooth="yes"/>
      <point x="180.003" y="-165.728"/>
      <point x="132.843" y="-0.0404109"/>
      <point x="134" y="284.349" type="curve" smooth="yes"/>
      <point x="134.293" y="356.374"/>
      <point x="137" y="428.72"/>
      <point x="142" y="500" type="curve"/>
      <point x="263" y="500" type="line"/>
      <point x="237" y="409"/>
      <point x="214" y="346"/>
      <point x="214" y="284" type="curve" smooth="yes"/>
      <point x="214" y="44.3297"/>
      <point x="324" y="-249.974"/>
      <point x="124.143" y="-249.974" type="curve" smooth="yes"/>
      <point x="57.0511" y="-249.974"/>
      <point x="-2.3353" y="-217.816"/>
    </contour>
  </outline>
</glyph>
<glyph name="Tcedilla" format="2">
  <advance width="460"/>
  <unicode hex="0162"/>
  <outline>
    <component base="T"/>
    <contour>
      <point x="274.5" y="-60" type="curve" smooth="yes"/>
      <point x="283.983" y="-42.3081"/>
      <point x="287.2" y="-19.8"/>
      <point x="290.5" y="0" type="curve"/>
      <point x="170.5" y="0" type="line"/>
      <point x="170.5" y="-16.5"/>
      <point x="169.183" y="-34.1786"/>
      <point x="164.5" y="-50" type="curve" smooth="yes"/>
      <point x="156.667" y="-76.463"/>
      <point x="145.71" y="-100.25"/>
      <point x="133.5" y="-125" type="curve"/>
      <point x="223.5" y="-125" type="line"/>
      <point x="242.31" y="-103.55"/>
      <point x="261.022" y="-85.145"/>
    </contour>
  </outline>
</glyph>
<glyph name="tcedilla" format="2">
  <advance width="309"/>
  <unicode hex="0163"/>
  <outline>
    <component base="t" xOffset="19"/>
    <contour>
      <point x="173" y="-60" type="curve" smooth="yes"/>
      <point x="182.483" y="-42.3081"/>
      <point x="185.7" y="-19.8"/>
      <point x="189" y="0" type="curve"/>
      <point x="69" y="1" type="line"/>
      <point x="69" y="-15.5"/>
      <point x="67.6831" y="-34.1786"/>
      <point x="63" y="-50" type="curve" smooth="yes"/>
      <point x="55.167" y="-76.463"/>
      <point x="44.21" y="-100.25"/>
      <point x="32" y="-125" type="curve"/>
      <point x="122" y="-125" type="line"/>
      <point x="140.81" y="-103.55"/>
      <point x="159.522" y="-85.145"/>
    </contour>
  </outline>
</glyph>
<glyph name="caron" format="2">
  <advance width="237"/>
  <unicode hex="02C7"/>
  <outline>
    <contour>
      <point x="20.6591" y="749.636" type="line"/>
      <point x="94" y="624.636" type="line"/>
      <point x="144" y="624.636" type="line"/>
      <point x="217" y="749.636" type="line"/>
      <point x="138" y="749.636" type="line"/>
      <point x="118.659" y="688.636" type="line"/>
      <point x="100.659" y="750" type="line"/>
    </contour>
  </outline>
</glyph>
<glyph name="breve" format="2">
  <advance width="185"/>
  <unicode hex="02D8"/>
  <outline>
    <contour>
      <point x="30" y="749.5" type="line"/>
      <point x="30.0857" y="714.665"/>
      <point x="57.7924" y="687.347"/>
      <point x="92.5" y="687" type="curve" smooth="yes"/>
      <point x="126.897" y="686.656"/>
      <point x="154.665" y="715.789"/>
      <point x="155" y="750.5" type="curve"/>
      <point x="114.708" y="749.994" type="line"/>
      <point x="114.832" y="746.937"/>
      <point x="108.993" y="736.599"/>
      <point x="92.9334" y="736.599" type="curve" smooth="yes"/>
      <point x="75.8664" y="736.599"/>
      <point x="69.911" y="746.813"/>
      <point x="70.1456" y="750.232" type="curve"/>
    </contour>
  </outline>
</glyph>
<glyph name="dotaccent" format="2">
  <advance width="124"/>
  <unicode hex="02D9"/>
  <outline>
    <contour>
      <point x="92.4458" y="674.273" type="curve" smooth="yes"/>
      <point x="106.719" y="688.547"/>
      <point x="106.719" y="721.172"/>
      <point x="92.4458" y="735.446" type="curve" smooth="yes"/>
      <point x="78.1722" y="749.719"/>
      <point x="45.5471" y="749.719"/>
      <point x="31.2735" y="735.446" type="curve" smooth="yes"/>
      <point x="17" y="721.172"/>
      <point x="17" y="688.547"/>
      <point x="31.2735" y="674.274" type="curve" smooth="yes"/>
      <point x="45.547" y="660"/>
      <point x="78.1723" y="660"/>
    </contour>
  </outline>
</glyph>
<glyph name="ogonek" format="2">
  <advance width="185"/>
  <unicode hex="02DB"/>
  <outline>
    <contour>
      <point x="44.0119" y="0.8616" type="line"/>
      <point x="24.7844" y="-54.6441" type="line" smooth="yes"/>
      <point x="12.1016" y="-91.257"/>
      <point x="25.0858" y="-132.363"/>
      <point x="67" y="-125" type="curve" smooth="yes"/>
      <point x="141" y="-112" type="line"/>
      <point x="141" y="-32" type="line"/>
      <point x="88.3077" y="-59.3071" type="line" smooth="yes"/>
      <point x="74.8036" y="-66.3055"/>
      <point x="65.5451" y="-50.8911"/>
      <point x="84.3608" y="-41.1929" type="curve" smooth="yes"/>
      <point x="164.012" y="-0.138401" type="line"/>
    </contour>
  </outline>
</glyph>
<glyph name="tilde" format="2">
  <advance width="220"/>
  <unicode hex="02DC"/>
  <outline>
    <contour>
      <point x="20" y="583" type="line"/>
      <point x="38.15" y="596.563"/>
      <point x="52.3774" y="613.368"/>
      <point x="75" y="612.101" type="curve" smooth="yes"/>
      <point x="102.984" y="610.534"/>
      <point x="117.017" y="589.59"/>
      <point x="145" y="588" type="curve" smooth="yes"/>
      <point x="167.602" y="586.716"/>
      <point x="181.85" y="603.47"/>
      <point x="200" y="617" type="curve"/>
      <point x="200" y="690.318" type="line"/>
      <point x="181.85" y="676.788"/>
      <point x="167.603" y="660.054"/>
      <point x="145" y="661.318" type="curve" smooth="yes"/>
      <point x="116.986" y="662.885"/>
      <point x="102.835" y="683.749"/>
      <point x="74.8209" y="685.318" type="curve" smooth="yes"/>
      <point x="52.2655" y="686.581"/>
      <point x="38.0909" y="669.848"/>
      <point x="20" y="656.318" type="curve"/>
    </contour>
  </outline>
</glyph>
<glyph name="commaaccentcomb" format="2">
  <advance width="177"/>
  <unicode hex="0326"/>
  <outline>
    <contour>
      <point x="141" y="180" type="curve" smooth="yes"/>
      <point x="150.483" y="197.692"/>
      <point x="153.7" y="220.2"/>
      <point x="157" y="240" type="curve"/>
      <point x="57" y="240" type="line"/>
      <point x="57" y="223.5"/>
      <point x="55.6831" y="205.821"/>
      <point x="51" y="190" type="curve" smooth="yes"/>
      <point x="43.167" y="163.537"/>
      <point x="32.21" y="139.75"/>
      <point x="20" y="115" type="curve"/>
      <point x="90" y="115" type="line"/>
      <point x="108.81" y="136.45"/>
      <point x="127.522" y="154.855"/>
    </contour>
  </outline>
</glyph>
<glyph name="quoteleft" format="2">
  <advance width="237"/>
  <unicode hex="2018"/>
  <outline>
    <contour>
      <point x="67" y="585" type="curve" smooth="yes"/>
      <point x="57.133" y="553.337"/>
      <point x="53.3" y="518"/>
      <point x="50" y="485" type="curve"/>
      <point x="160" y="485" type="line"/>
      <point x="160" y="518"/>
      <point x="162.888" y="552.257"/>
      <point x="167" y="585" type="curve" smooth="yes"/>
      <point x="171.857" y="623.678"/>
      <point x="178.09" y="662.05"/>
      <point x="187" y="700" type="curve"/>
      <point x="117" y="700" type="line"/>
      <point x="98.19" y="662.05"/>
      <point x="79.6016" y="625.438"/>
    </contour>
  </outline>
</glyph>
<glyph name="quoteright" format="2">
  <advance width="175"/>
  <unicode hex="2019"/>
  <outline>
    <contour>
      <point x="170" y="600" type="curve" smooth="yes"/>
      <point x="179.867" y="631.663"/>
      <point x="183.7" y="667"/>
      <point x="187" y="700" type="curve"/>
      <point x="77" y="700" type="line"/>
      <point x="77" y="667"/>
      <point x="74.1119" y="632.743"/>
      <point x="70" y="600" type="curve" smooth="yes"/>
      <point x="65.1427" y="561.322"/>
      <point x="58.91" y="522.95"/>
      <point x="50" y="485" type="curve"/>
      <point x="120" y="485" type="line"/>
      <point x="138.81" y="522.95"/>
      <point x="157.398" y="559.562"/>
    </contour>
  </outline>
</glyph>
<glyph name="quotesinglbase" format="2">
  <advance width="237"/>
  <unicode hex="201A"/>
  <outline>
    <contour>
      <point x="171" y="0" type="curve" smooth="yes"/>
      <point x="180.867" y="31.6628"/>
      <point x="183.7" y="67"/>
      <point x="187" y="100" type="curve"/>
      <point x="77" y="100" type="line"/>
      <point x="77" y="67"/>
      <point x="75.1119" y="32.7428"/>
      <point x="71" y="0" type="curve" smooth="yes"/>
      <point x="66.1427" y="-38.6781"/>
      <point x="58.91" y="-77.05"/>
      <point x="50" y="-115" type="curve"/>
      <point x="120" y="-115" type="line"/>
      <point x="138.81" y="-77.05"/>
      <point x="158.398" y="-40.4378"/>
    </contour>
  </outline>
</glyph>
<glyph name="quotedblleft" format="2">
  <advance width="397"/>
  <unicode hex="201C"/>
  <outline>
    <contour>
      <point x="226" y="585" type="curve" smooth="yes"/>
      <point x="216.133" y="553.337"/>
      <point x="213.3" y="518"/>
      <point x="210" y="485" type="curve"/>
      <point x="320" y="485" type="line"/>
      <point x="320" y="518"/>
      <point x="321.888" y="552.257"/>
      <point x="326" y="585" type="curve" smooth="yes"/>
      <point x="330.857" y="623.678"/>
      <point x="338.09" y="662.05"/>
      <point x="347" y="700" type="curve"/>
      <point x="277" y="700" type="line"/>
      <point x="258.19" y="662.05"/>
      <point x="238.602" y="625.438"/>
    </contour>
    <contour>
      <point x="66" y="585" type="curve" smooth="yes"/>
      <point x="56.133" y="553.337"/>
      <point x="53.3" y="518"/>
      <point x="50" y="485" type="curve"/>
      <point x="160" y="485" type="line"/>
      <point x="160" y="518"/>
      <point x="161.888" y="552.257"/>
      <point x="166" y="585" type="curve" smooth="yes"/>
      <point x="170.857" y="623.678"/>
      <point x="178.09" y="662.05"/>
      <point x="187" y="700" type="curve"/>
      <point x="117" y="700" type="line"/>
      <point x="98.19" y="662.05"/>
      <point x="78.6016" y="625.438"/>
    </contour>
  </outline>
</glyph>
<glyph name="quotedblbase" format="2">
  <advance width="397"/>
  <unicode hex="201E"/>
  <outline>
    <contour>
      <point x="171" y="0" type="curve" smooth="yes"/>
      <point x="180.867" y="31.6628"/>
      <point x="183.7" y="67"/>
      <point x="187" y="100" type="curve"/>
      <point x="77" y="100" type="line"/>
      <point x="77" y="67"/>
      <point x="75.1119" y="32.7428"/>
      <point x="71" y="0" type="curve" smooth="yes"/>
      <point x="66.1427" y="-38.6781"/>
      <point x="58.91" y="-77.05"/>
      <point x="50" y="-115" type="curve"/>
      <point x="120" y="-115" type="line"/>
      <point x="138.81" y="-77.05"/>
      <point x="158.398" y="-40.4378"/>
    </contour>
    <contour>
      <point x="331" y="0" type="curve" smooth="yes"/>
      <point x="340.867" y="31.6628"/>
      <point x="343.7" y="67"/>
      <point x="347" y="100" type="curve"/>
      <point x="237" y="100" type="line"/>
      <point x="237" y="67"/>
      <point x="235.112" y="32.7428"/>
      <point x="231" y="0" type="curve" smooth="yes"/>
      <point x="226.143" y="-38.6781"/>
      <point x="218.91" y="-77.05"/>
      <point x="210" y="-115" type="curve"/>
      <point x="280" y="-115" type="line"/>
      <point x="298.81" y="-77.05"/>
      <point x="318.398" y="-40.4378"/>
    </contour>
  </outline>
</glyph>
<glyph name="bullet" format="2">
  <advance width="404"/>
  <unicode hex="2022"/>
  <outline>
    <contour>
      <point x="262" y="222" type="curve" smooth="yes"/>
      <point x="290.001" y="250.001"/>
      <point x="290.001" y="313.999"/>
      <point x="262" y="342" type="curve" smooth="yes"/>
      <point x="233.999" y="370.001"/>
      <point x="170.001" y="370.001"/>
      <point x="142" y="342" type="curve" smooth="yes"/>
      <point x="113.999" y="313.999"/>
      <point x="113.999" y="250.001"/>
      <point x="142" y="222" type="curve" smooth="yes"/>
      <point x="170.001" y="193.999"/>
      <point x="233.999" y="193.999"/>
    </contour>
  </outline>
</glyph>
<glyph name="guilsinglleft" format="2">
  <advance width="400"/>
  <unicode hex="2039"/>
  <outline>
    <contour>
      <point x="203" y="460" type="line"/>
      <point x="40" y="265.452" type="line"/>
      <point x="203" y="70" type="line"/>
      <point x="340" y="70" type="line"/>
      <point x="137" y="265.453" type="line"/>
      <point x="340" y="460" type="line"/>
    </contour>
  </outline>
</glyph>
<glyph name="fraction" format="2">
  <advance width="553"/>
  <unicode hex="2044"/>
  <outline>
    <contour>
      <point x="80" y="0" type="line"/>
      <point x="419.348" y="700" type="line"/>
      <point x="542.348" y="700" type="line"/>
      <point x="163" y="0" type="line"/>
    </contour>
  </outline>
</glyph>
<glyph name="Euro" format="2">
  <advance width="580"/>
  <unicode hex="20AC"/>
  <outline>
    <contour>
      <point x="547.168" y="79.6592" type="line"/>
      <point x="501.843" y="35.0864"/>
      <point x="440.64" y="-9.99509"/>
      <point x="347.529" y="-10" type="curve" smooth="yes"/>
      <point x="131.387" y="-10.0114"/>
      <point x="100.642" y="233.283"/>
      <point x="100.291" y="349.832" type="curve" smooth="yes"/>
      <point x="99.9733" y="455.041"/>
      <point x="132.37" y="710.126"/>
      <point x="351.206" y="710.132" type="curve" smooth="yes"/>
      <point x="444.401" y="710.135"/>
      <point x="503.481" y="664.771"/>
      <point x="533.287" y="620.465" type="curve"/>
      <point x="453.067" y="553" type="line"/>
      <point x="425" y="578"/>
      <point x="379" y="621.529"/>
      <point x="323" y="621.529" type="curve" smooth="yes"/>
      <point x="228.506" y="621.529"/>
      <point x="193.937" y="515.668"/>
      <point x="193.937" y="408.126" type="curve" smooth="yes"/>
      <point x="193.937" y="263"/>
      <point x="249.039" y="80.6158"/>
      <point x="378.836" y="75.9421" type="curve" smooth="yes"/>
      <point x="405" y="75"/>
      <point x="448" y="85"/>
      <point x="496.623" y="124.442" type="curve"/>
    </contour>
    <contour>
      <point x="45" y="231" type="line"/>
      <point x="45" y="311" type="line"/>
      <point x="445" y="311" type="line"/>
      <point x="445" y="201" type="line"/>
    </contour>
    <contour>
      <point x="45" y="392" type="line"/>
      <point x="45" y="472" type="line"/>
      <point x="445" y="472" type="line"/>
      <point x="445" y="362" type="line"/>
    </contour>
  </outline>
</glyph>
